<?xml version="1.0" encoding="utf-8"?>
<!-- Generator: Adobe Illustrator 27.5.0, SVG Export Plug-In . SVG Version: 6.00 Build 0)  -->
<svg version="1.1" id="Capa_1" xmlns="http://www.w3.org/2000/svg" xmlns:xlink="http://www.w3.org/1999/xlink" x="0px" y="0px"
	 viewBox="0 0 1920 1080" style="enable-background:new 0 0 1920 1080;" xml:space="preserve">
<style type="text/css">
	.st0{fill:#1E1E1C;}
	.st1{font-family:'BarlowSemiCondensed-SemiBold';}
	.st2{font-size:32px;}
	.st3{font-family:'BarlowSemiCondensed-MediumItalic';}
	.st4{font-size:17.5227px;}
	.st5{fill:none;stroke:#1D1D1B;stroke-width:0.25;stroke-linecap:round;stroke-linejoin:round;}
	.st6{fill:#FFFFFF;}
	.st7{fill:#DDDBDC;}
	.st8{fill:#CC1719;}
	.st9{fill:#FFFFFF;stroke:#1D1D1B;stroke-width:0.25;stroke-linecap:round;stroke-linejoin:round;}
	.st10{fill:none;stroke:#1D1E1C;stroke-width:0.5;stroke-miterlimit:10;}
	.st11{fill:#1D1E1C;}
	.st12{fill:none;stroke:#CC1719;stroke-miterlimit:10;}
	.st13{fill:none;stroke:#1D1D1B;stroke-width:0.35;stroke-linecap:round;stroke-linejoin:round;}
	.st14{fill:#1D1D1B;}
	.st15{fill:#A29E9E;}
	.st16{fill:#82828B;}
	.st17{fill:#656571;}
	.st18{fill:#6E6B6A;}
	.st19{fill:none;}
	.st20{font-size:28px;}
	.st21{font-family:'BarlowSemiCondensed-Light';}
	.st22{font-size:21.4318px;}
	.st23{fill:#EFBAA5;}
	.st24{fill:#DD6F53;}
	.st25{font-family:'BarlowSemiCondensed-LightItalic';}
	.st26{font-size:16.0739px;}
	.st27{font-family:'BarlowSemiCondensed-Regular';}
	.st28{clip-path:url(#SVGID_00000008151454209339515180000003590251691155247745_);fill:#EFBBA6;}
	.st29{clip-path:url(#SVGID_00000023277750946586011480000004983062417287453099_);}
	.st30{clip-path:url(#SVGID_00000170962636471718483080000002374875381896080023_);fill:#EFBBA6;}
	.st31{clip-path:url(#SVGID_00000124159113074717716710000009984190786643813033_);}
	.st32{clip-path:url(#SVGID_00000152943648682650197310000006596309997830629268_);fill:#EFBBA6;}
	.st33{clip-path:url(#SVGID_00000179616609869547987200000005616303337873562549_);}
	.st34{clip-path:url(#SVGID_00000141452937574622583790000006001567745230520231_);fill:#EFBBA6;}
	.st35{clip-path:url(#SVGID_00000129907056849883874490000012461795649444676775_);}
	.st36{clip-path:url(#SVGID_00000107567891750242292110000001262576318293283225_);fill:#EFBBA6;}
	.st37{clip-path:url(#SVGID_00000121239923860340989840000011074754935658263219_);}
	.st38{clip-path:url(#SVGID_00000109721280278634585820000013332457208598994818_);fill:#EFBBA6;}
	.st39{clip-path:url(#SVGID_00000121262089366088422050000015513992357741393854_);}
	.st40{clip-path:url(#SVGID_00000001651940428413396280000013684977433401637048_);fill:#EFBBA6;}
	.st41{clip-path:url(#SVGID_00000031886357992871800370000003621880349016141487_);}
	.st42{clip-path:url(#SVGID_00000014600084265429943980000011188030331496419730_);fill:#EFBBA6;}
	.st43{clip-path:url(#SVGID_00000115512298014032922020000004594181020283083436_);fill:#DD6E52;}
	.st44{clip-path:url(#SVGID_00000156586166207800084460000017199530786661158807_);fill:#DD6E52;}
	.st45{clip-path:url(#SVGID_00000005982270165383388080000014846566185143492480_);fill:#DD6E52;}
	.st46{clip-path:url(#SVGID_00000115488917432282371400000009502242014703657143_);fill:#DD6E52;}
	.st47{clip-path:url(#SVGID_00000082348207468766131600000004492070315382759300_);fill:#DD6E52;}
	.st48{clip-path:url(#SVGID_00000070118721049914994690000003151418201431699098_);fill:#DD6E52;}
	.st49{clip-path:url(#SVGID_00000163070105329377049020000011231590547509113251_);fill:#DD6E52;}
	.st50{clip-path:url(#SVGID_00000038402718225106870820000017854189684702288567_);fill:#DD6E52;}
	.st51{clip-path:url(#SVGID_00000148643766714404827410000002221181623418769298_);fill:#CD181C;}
	.st52{clip-path:url(#SVGID_00000049901319382134259070000007324765878411625614_);fill:#CD181C;}
	.st53{clip-path:url(#SVGID_00000069355946700351691020000012487864143650195390_);fill:#CD181C;}
	.st54{clip-path:url(#SVGID_00000005974803184298587060000007666872219186204306_);fill:#CD181C;}
	.st55{clip-path:url(#SVGID_00000035491461921301474540000011299770508524443303_);fill:#CD181C;}
	.st56{clip-path:url(#SVGID_00000176728434122420651030000006721314963783639743_);fill:#CD181C;}
	.st57{clip-path:url(#SVGID_00000047764361091509606520000006997282881078561704_);fill:#CD181C;}
	.st58{clip-path:url(#SVGID_00000178170879140965510660000002902624194047910556_);fill:#CD181C;}
	.st59{fill:#010000;}
	.st60{font-size:19px;}
	.st61{font-size:15px;}
	.st62{fill:none;stroke:#DDDBDC;stroke-width:4;stroke-miterlimit:10;}
	.st63{font-size:16.5024px;}
	.st64{font-family:'BarlowSemiCondensed-Medium';}
	.st65{font-size:13.2019px;}
	.st66{fill:#F4E6D2;stroke:#CC1719;stroke-miterlimit:10;}
</style>
<g id="Capa_1_00000158742265258337145780000009423280058898325420_">
</g>
<g>
	<text transform="matrix(1 0 0 1 863.8813 374.5123)" class="st0 st1 st2">Competencia</text>
</g>
<g>
	<text transform="matrix(1 0 0 1 859.6982 74.4423)" class="st0 st1 st2">Primera edición</text>
</g>
<g>
	<g>
		<text transform="matrix(1 0 0 1 949.6533 517.2581)" class="st0 st3 st4">1.000 m</text>
	</g>
	<g>
		<text transform="matrix(1 0 0 1 1220.9105 517.0843)" class="st0 st3 st4">500 m</text>
	</g>
	<g>
		<text transform="matrix(1 0 0 1 1483.5345 517.2591)" class="st0 st3 st4">0 m</text>
	</g>
	<g>
		<text transform="matrix(1 0 0 1 392.7286 517.1771)" class="st0 st3 st4">2.000 m</text>
	</g>
	<g>
		<text transform="matrix(1 0 0 1 673.0522 516.8284)" class="st0 st3 st4">1.500 m</text>
	</g>
	<path class="st5" d="M855.3,474.55"/>
	<path class="st5" d="M569.08,474.55"/>
	<g>
		<polygon class="st6" points="1527.06,494.59 956.83,494.59 956.83,429.49 1426.81,429.49 		"/>
		<polygon class="st7" points="1505.65,489.33 930.9,489.33 930.9,432.05 1430.03,429.49 		"/>
		<polygon class="st6" points="386.6,494.59 942.15,494.59 942.15,429.49 484.27,429.49 		"/>
		<polygon class="st7" points="406.34,489.33 944.14,489.33 944.14,432.05 482,429.49 		"/>
	</g>
	<text transform="matrix(1 0 0 1 1430.6996 385.3441)" class="st8 st3 st4">Salida</text>
	<path class="st9" d="M937.1,466.83"/>
	<path class="st9" d="M1041.01,424.53"/>
	<g>
		<line class="st5" x1="463.31" y1="509.6" x2="664.34" y2="509.6"/>
		<line class="st5" x1="466.68" y1="507.78" x2="459.95" y2="511.41"/>
		<line class="st5" x1="664.31" y1="506.3" x2="664.37" y2="512.9"/>
	</g>
	<g>
		<line class="st5" x1="734.74" y1="509.6" x2="939.14" y2="509.6"/>
		<line class="st5" x1="939.14" y1="512.27" x2="939.14" y2="506.92"/>
		<line class="st5" x1="734.72" y1="506.3" x2="734.77" y2="512.9"/>
	</g>
	<g>
		<line class="st5" x1="1008.2" y1="509.6" x2="1212.6" y2="509.6"/>
		<line class="st5" x1="1212.6" y1="512.27" x2="1212.6" y2="506.92"/>
		<line class="st5" x1="1008.17" y1="506.29" x2="1008.23" y2="512.9"/>
	</g>
	<g>
		<line class="st5" x1="1272.02" y1="509.59" x2="1476.42" y2="509.59"/>
		<line class="st5" x1="1476.42" y1="512.27" x2="1476.42" y2="506.92"/>
		<line class="st5" x1="1271.99" y1="506.29" x2="1272.04" y2="512.9"/>
	</g>
	<g>
		<g>
			<line class="st10" x1="1275.25" y1="460.74" x2="1072.92" y2="460.74"/>
			<g>
				<polygon class="st11" points="1073.65,458.24 1069.33,460.74 1073.65,463.23 				"/>
			</g>
		</g>
	</g>
	<g>
		<g>
			<line class="st10" x1="865.21" y1="459.81" x2="662.88" y2="459.81"/>
			<g>
				<polygon class="st11" points="663.61,457.32 659.29,459.81 663.61,462.3 				"/>
			</g>
		</g>
	</g>
	<path class="st12" d="M1413.18,433.9"/>
	<polygon class="st8" points="1477.91,489.33 1505.65,489.33 1430.03,429.49 1410.34,429.56 	"/>
	<g>
		<g>
			<line class="st13" x1="1455.78" y1="457.66" x2="1455.78" y2="393.23"/>
			<g>
				<circle class="st14" cx="1455.78" cy="457.66" r="0.53"/>
			</g>
		</g>
	</g>
	<polygon class="st8" points="433.7,489.33 405.95,489.33 480.79,429.49 504.69,429.56 	"/>
	<text transform="matrix(1 0 0 1 429.4493 385.7542)" class="st8 st3 st4">Meta</text>
	<g>
		<g>
			<line class="st13" x1="445.64" y1="463.85" x2="445.64" y2="399.41"/>
			<g>
				<circle class="st14" cx="445.64" cy="463.85" r="0.53"/>
			</g>
		</g>
	</g>
	<g>
		<path class="st15" d="M1426.05,461.3c0,0-9.4-4.08-19.85-3.47l-13.91-0.04l-3.54-3.74l-4.54-11.21c0,0-0.52-1.52-2.07-4.8
			c0,0-1.18,0.93-0.99,1.77c0.2,0.84,1.9,3.14,2.16,3.32c0.25,0.19,4.25,10.75,4.25,10.75l-2.99,3.88l-14.53-0.05l-3.47-3.67
			l-4.54-11.21c0,0-0.66-1.74-2.07-4.8c0,0-1.18,0.93-0.99,1.77c0.2,0.84,1.9,3.14,2.16,3.32c0.26,0.19,4.25,10.75,4.25,10.75
			l-2.93,3.81l-13.28-0.04l-3.41-3.6l-4.54-11.21c0,0-0.6-1.27-2.07-4.8c0,0-1.18,0.93-0.99,1.77c0.19,0.84,1.9,3.14,2.15,3.32
			c0.26,0.19,4.25,10.75,4.25,10.75l-2.88,3.74l-15.39-0.05l-2.87-3.04l-4.54-11.21c0,0-1.18-1.58-2.07-4.8c0,0-1.18,0.93-0.99,1.77
			c0.19,0.84,1.9,3.14,2.15,3.32c0.26,0.19,4.25,10.75,4.25,10.75l-2.45,3.18l-9.54-0.03c0,0-12.17,0.56-17,3.29
			c0,0,8.09,2.2,17.26,2.63l20.45,0.19l2.59,3.76c0,0-4.56,10.33-4.83,10.51c-0.27,0.17-2.09,2.37-2.33,3.2
			c-0.24,0.83,0.89,1.82,0.89,1.82c2.08-1.85,2.33-4.68,2.33-4.68l5.14-10.95l3.79-3.59l14.9,0.14l2.45,3.56
			c0,0-4.56,10.33-4.83,10.51c-0.27,0.17-2.09,2.37-2.33,3.2c-0.24,0.83,0.89,1.82,0.89,1.82c2.28-2.53,2.33-4.68,2.33-4.68
			l5.14-10.95l3.57-3.39l13.73,0.13l2.31,3.36c0,0-4.56,10.33-4.83,10.51c-0.27,0.17-2.09,2.37-2.33,3.2
			c-0.24,0.83,0.89,1.82,0.89,1.82c1.99-2.27,2.33-4.68,2.33-4.68l5.14-10.95l3.37-3.2l15.44,0.14l2.17,3.16
			c0,0-4.56,10.33-4.83,10.51c-0.27,0.17-2.09,2.37-2.33,3.2c-0.24,0.83,0.89,1.82,0.89,1.82c1.52-2.53,2.33-4.68,2.33-4.68
			l5.14-10.95l3.16-3l2.27,0.02C1405.51,464.32,1419.84,465.28,1426.05,461.3z M1400.36,466.08l0.96-1.8l0.74,0.01L1400.36,466.08z
			 M1398.08,464.25l2.18,0.02l-0.82,2.01L1398.08,464.25z M1378.18,466.08l1.07-2.01l0.82,0.01L1378.18,466.08z M1375.76,464.04
			l2.4,0.02l-0.9,2.22L1375.76,464.04z M1357.36,466.08l1.17-2.19l0.9,0.01L1357.36,466.08z M1354.82,463.85l2.6,0.02l-0.98,2.41
			L1354.82,463.85z M1335.03,466.08l1.28-2.4l0.98,0.01L1335.03,466.08z M1332.34,463.64l2.83,0.03l-1.06,2.61L1332.34,463.64z
			 M1323.44,457.57l-2.24-0.01l1.53-2.04L1323.44,457.57z M1325.18,457.57h-0.69l-0.84-1.8L1325.18,457.57z M1345.97,457.64
			l-2.85-0.01l1.95-2.61L1345.97,457.64z M1347.99,457.65h-0.91l-1.1-2.37L1347.99,457.65z M1366.81,457.71l-2.93-0.01l2.01-2.67
			L1366.81,457.71z M1368.86,457.72h-0.93l-1.13-2.43L1368.86,457.72z M1389.01,457.78l-3-0.01l2.06-2.74L1389.01,457.78z
			 M1391.1,457.78h-0.96l-1.16-2.5L1391.1,457.78z"/>
		<path class="st14" d="M1409.82,460.39l-95.14-1.13c-0.65-0.01-1.19,0.52-1.2,1.18l0,0c-0.01,0.65,0.52,1.19,1.17,1.2l95.14,1.13
			c0.65,0.01,1.2-0.52,1.2-1.17l0,0C1411,460.94,1410.47,460.4,1409.82,460.39z"/>
		<g>
			<path class="st16" d="M1326.24,460.07h-6.25c-0.34,0-0.62,0.28-0.62,0.62l0,0c0,0.34,0.28,0.62,0.62,0.62h6.25
				c0.34,0,0.62-0.28,0.62-0.62l0,0C1326.86,460.36,1326.58,460.07,1326.24,460.07z"/>
			<path class="st16" d="M1323.62,461.66c0,0,0.34,1.24,1.44,1.1c1.1-0.14,1.8-0.81,1.8-1.43c0-0.24-0.17-0.78-0.43-1.34
				c-0.41-0.89-1.06-1.82-1.65-1.69c-0.96,0.21-1.17,1.79-1.17,1.79s0.83,0.48,1.03-0.27c0.21-0.76-0.07-0.61,0.59-0.69
				c0.66-0.08,1.06,1.72,0.44,2.68c-0.62,0.96-1.31,0.47-1.24,0c0.07-0.47-0.83-1.51-0.83-0.83
				C1323.62,461.66,1323.62,461.66,1323.62,461.66z"/>
			<path class="st17" d="M1326.54,460.07L1326.54,460.07c-0.4,0-0.72,0.32-0.72,0.72l0,0c0,0.39,0.32,0.71,0.72,0.71l0,0
				c0.39,0,0.72-0.32,0.72-0.71l0,0C1327.26,460.39,1326.93,460.07,1326.54,460.07z"/>
			<path class="st16" d="M1322.55,460.07L1322.55,460.07c-0.09,0-0.17,0.08-0.17,0.17v0.91c0,0.09,0.08,0.17,0.17,0.17l0,0
				c0.1,0,0.17-0.08,0.17-0.17v-0.91C1322.72,460.15,1322.64,460.07,1322.55,460.07z"/>
		</g>
		<g>
			<path class="st16" d="M1337.47,460.24h-6.25c-0.34,0-0.62,0.28-0.62,0.62l0,0c0,0.34,0.28,0.62,0.62,0.62h6.25
				c0.34,0,0.62-0.28,0.62-0.62l0,0C1338.1,460.52,1337.81,460.24,1337.47,460.24z"/>
			<path class="st16" d="M1334.85,461.82c0,0,0.34,1.24,1.45,1.1c1.1-0.14,1.8-0.81,1.8-1.43c0-0.24-0.17-0.78-0.43-1.34
				c-0.41-0.89-1.06-1.82-1.65-1.69c-0.96,0.21-1.17,1.79-1.17,1.79s0.83,0.48,1.03-0.28c0.21-0.75-0.07-0.61,0.59-0.68
				c0.66-0.08,1.06,1.72,0.44,2.68c-0.62,0.96-1.31,0.47-1.24,0c0.07-0.47-0.83-1.51-0.83-0.83
				C1334.85,461.82,1334.85,461.82,1334.85,461.82z"/>
			<path class="st17" d="M1337.78,460.24L1337.78,460.24c-0.4,0-0.72,0.32-0.72,0.71l0,0c0,0.4,0.32,0.72,0.72,0.72l0,0
				c0.39,0,0.72-0.32,0.72-0.72l0,0C1338.49,460.56,1338.17,460.24,1337.78,460.24z"/>
			<path class="st16" d="M1333.79,460.24L1333.79,460.24c-0.1,0-0.17,0.08-0.17,0.17v0.91c0,0.09,0.08,0.17,0.17,0.17l0,0
				c0.09,0,0.17-0.08,0.17-0.17v-0.91C1333.96,460.32,1333.88,460.24,1333.79,460.24z"/>
		</g>
		<g>
			<path class="st16" d="M1348.91,460.03h-6.25c-0.34,0-0.62,0.28-0.62,0.62l0,0c0,0.34,0.28,0.62,0.62,0.62h6.25
				c0.34,0,0.62-0.28,0.62-0.62l0,0C1349.53,460.32,1349.25,460.03,1348.91,460.03z"/>
			<path class="st16" d="M1346.29,461.62c0,0,0.34,1.24,1.44,1.1c1.1-0.14,1.8-0.81,1.8-1.43c0-0.24-0.16-0.78-0.43-1.34
				c-0.41-0.89-1.06-1.82-1.65-1.69c-0.96,0.21-1.17,1.79-1.17,1.79s0.83,0.48,1.03-0.27c0.21-0.76-0.07-0.61,0.59-0.69
				c0.66-0.08,1.06,1.72,0.44,2.68c-0.62,0.96-1.31,0.47-1.24,0c0.07-0.47-0.83-1.51-0.83-0.83
				C1346.29,461.62,1346.29,461.62,1346.29,461.62z"/>
			<path class="st17" d="M1349.21,460.03L1349.21,460.03c-0.39,0-0.72,0.32-0.72,0.72l0,0c0,0.39,0.32,0.71,0.72,0.71l0,0
				c0.4,0,0.72-0.32,0.72-0.71l0,0C1349.93,460.36,1349.61,460.03,1349.21,460.03z"/>
			<path class="st16" d="M1345.22,460.03L1345.22,460.03c-0.09,0-0.17,0.08-0.17,0.17v0.91c0,0.09,0.08,0.17,0.17,0.17l0,0
				c0.09,0,0.17-0.08,0.17-0.17v-0.91C1345.4,460.11,1345.32,460.03,1345.22,460.03z"/>
		</g>
		<g>
			<path class="st16" d="M1359.04,460.13h-6.25c-0.34,0-0.62,0.28-0.62,0.62l0,0c0,0.35,0.28,0.63,0.62,0.63h6.25
				c0.34,0,0.62-0.28,0.62-0.63l0,0C1359.67,460.42,1359.39,460.13,1359.04,460.13z"/>
			<path class="st16" d="M1356.42,461.72c0,0,0.34,1.24,1.45,1.1c1.1-0.14,1.8-0.81,1.8-1.43c0-0.24-0.17-0.78-0.43-1.34
				c-0.41-0.89-1.06-1.82-1.65-1.7c-0.96,0.21-1.17,1.79-1.17,1.79s0.83,0.48,1.03-0.27c0.21-0.76-0.07-0.61,0.59-0.69
				c0.65-0.08,1.06,1.72,0.44,2.68c-0.62,0.97-1.31,0.47-1.24,0c0.07-0.47-0.83-1.51-0.83-0.83
				C1356.42,461.72,1356.42,461.72,1356.42,461.72z"/>
			<path class="st17" d="M1359.35,460.13L1359.35,460.13c-0.39,0-0.72,0.33-0.72,0.72l0,0c0,0.39,0.32,0.71,0.72,0.71l0,0
				c0.39,0,0.72-0.32,0.72-0.71l0,0C1360.06,460.46,1359.74,460.13,1359.35,460.13z"/>
			<path class="st16" d="M1355.36,460.13L1355.36,460.13c-0.1,0-0.17,0.08-0.17,0.18v0.9c0,0.09,0.08,0.18,0.17,0.18l0,0
				c0.09,0,0.17-0.08,0.17-0.18v-0.9C1355.53,460.21,1355.45,460.13,1355.36,460.13z"/>
		</g>
		<g>
			<path class="st16" d="M1369.72,460.25h-6.25c-0.34,0-0.63,0.28-0.63,0.62l0,0c0,0.34,0.28,0.62,0.63,0.62h6.25
				c0.34,0,0.62-0.28,0.62-0.62l0,0C1370.35,460.53,1370.07,460.25,1369.72,460.25z"/>
			<path class="st16" d="M1367.1,461.84c0,0,0.34,1.24,1.45,1.1c1.1-0.14,1.8-0.81,1.8-1.43c0-0.24-0.17-0.78-0.43-1.34
				c-0.41-0.89-1.06-1.82-1.65-1.69c-0.96,0.21-1.17,1.79-1.17,1.79s0.83,0.48,1.03-0.28c0.21-0.76-0.07-0.61,0.59-0.69
				c0.66-0.08,1.06,1.72,0.44,2.69c-0.62,0.96-1.31,0.47-1.24,0c0.07-0.47-0.83-1.51-0.83-0.83
				C1367.1,461.84,1367.1,461.84,1367.1,461.84z"/>
			<path class="st17" d="M1370.03,460.25L1370.03,460.25c-0.39,0-0.72,0.32-0.72,0.71l0,0c0,0.39,0.32,0.72,0.72,0.72l0,0
				c0.39,0,0.72-0.33,0.72-0.72l0,0C1370.74,460.57,1370.42,460.25,1370.03,460.25z"/>
			<path class="st16" d="M1366.04,460.25L1366.04,460.25c-0.09,0-0.17,0.08-0.17,0.17v0.91c0,0.09,0.08,0.17,0.17,0.17l0,0
				c0.09,0,0.17-0.08,0.17-0.17v-0.91C1366.21,460.33,1366.13,460.25,1366.04,460.25z"/>
		</g>
		<g>
			<path class="st16" d="M1381.08,460.21h-6.25c-0.34,0-0.62,0.28-0.62,0.62l0,0c0,0.34,0.28,0.62,0.62,0.62h6.25
				c0.34,0,0.62-0.28,0.62-0.62l0,0C1381.71,460.49,1381.42,460.21,1381.08,460.21z"/>
			<path class="st16" d="M1378.46,461.8c0,0,0.34,1.24,1.45,1.1c1.1-0.14,1.8-0.81,1.8-1.43c0-0.24-0.17-0.78-0.43-1.34
				c-0.41-0.89-1.06-1.82-1.65-1.69c-0.96,0.21-1.17,1.79-1.17,1.79s0.83,0.48,1.03-0.28c0.21-0.76-0.06-0.61,0.59-0.69
				c0.66-0.08,1.06,1.72,0.44,2.69c-0.62,0.96-1.31,0.47-1.24,0c0.07-0.47-0.83-1.51-0.83-0.83
				C1378.46,461.8,1378.46,461.8,1378.46,461.8z"/>
			<path class="st17" d="M1381.39,460.21L1381.39,460.21c-0.4,0-0.72,0.32-0.72,0.71l0,0c0,0.39,0.32,0.72,0.72,0.72l0,0
				c0.39,0,0.72-0.33,0.72-0.72l0,0C1382.1,460.54,1381.78,460.21,1381.39,460.21z"/>
			<path class="st16" d="M1377.4,460.21L1377.4,460.21c-0.1,0-0.17,0.08-0.17,0.17v0.91c0,0.09,0.08,0.17,0.17,0.17l0,0
				c0.09,0,0.17-0.08,0.17-0.17v-0.91C1377.57,460.29,1377.49,460.21,1377.4,460.21z"/>
		</g>
		<g>
			<path class="st16" d="M1391.5,460.34h-6.25c-0.34,0-0.62,0.28-0.62,0.62l0,0c0,0.35,0.28,0.62,0.62,0.62h6.25
				c0.34,0,0.62-0.28,0.62-0.62l0,0C1392.13,460.63,1391.85,460.34,1391.5,460.34z"/>
			<path class="st16" d="M1388.89,461.93c0,0,0.34,1.24,1.44,1.1c1.1-0.14,1.8-0.81,1.8-1.43c0-0.24-0.16-0.78-0.43-1.34
				c-0.41-0.89-1.06-1.83-1.65-1.7c-0.96,0.21-1.17,1.79-1.17,1.79s0.83,0.48,1.03-0.27c0.21-0.76-0.07-0.61,0.59-0.69
				c0.66-0.08,1.06,1.72,0.44,2.68c-0.62,0.96-1.31,0.47-1.24,0c0.07-0.47-0.83-1.51-0.83-0.83
				C1388.89,461.93,1388.89,461.93,1388.89,461.93z"/>
			<path class="st17" d="M1391.81,460.34L1391.81,460.34c-0.39,0-0.72,0.33-0.72,0.72l0,0c0,0.39,0.32,0.71,0.72,0.71l0,0
				c0.4,0,0.72-0.32,0.72-0.71l0,0C1392.52,460.67,1392.2,460.34,1391.81,460.34z"/>
			<path class="st16" d="M1387.82,460.34L1387.82,460.34c-0.09,0-0.17,0.08-0.17,0.17v0.91c0,0.09,0.08,0.17,0.17,0.17l0,0
				c0.09,0,0.17-0.08,0.17-0.17v-0.91C1387.99,460.42,1387.91,460.34,1387.82,460.34z"/>
		</g>
		<g>
			<path class="st16" d="M1402.6,460.61h-6.25c-0.34,0-0.62,0.28-0.62,0.62l0,0c0,0.35,0.28,0.62,0.62,0.62h6.25
				c0.34,0,0.62-0.28,0.62-0.62l0,0C1403.23,460.89,1402.94,460.61,1402.6,460.61z"/>
			<path class="st16" d="M1399.98,462.2c0,0,0.34,1.24,1.45,1.1c1.1-0.14,1.8-0.8,1.8-1.43c0-0.24-0.17-0.78-0.43-1.34
				c-0.41-0.89-1.06-1.82-1.65-1.7c-0.96,0.21-1.17,1.79-1.17,1.79s0.83,0.48,1.03-0.27c0.21-0.76-0.07-0.61,0.59-0.69
				c0.66-0.08,1.06,1.72,0.44,2.68c-0.62,0.96-1.31,0.47-1.24,0c0.07-0.47-0.83-1.51-0.83-0.83
				C1399.98,462.2,1399.98,462.2,1399.98,462.2z"/>
			<path class="st17" d="M1402.9,460.61L1402.9,460.61c-0.4,0-0.72,0.33-0.72,0.72l0,0c0,0.39,0.32,0.71,0.72,0.71l0,0
				c0.39,0,0.72-0.32,0.72-0.71l0,0C1403.62,460.94,1403.3,460.61,1402.9,460.61z"/>
			<path class="st16" d="M1398.91,460.61L1398.91,460.61c-0.1,0-0.17,0.08-0.17,0.17v0.91c0,0.09,0.08,0.17,0.17,0.17l0,0
				c0.09,0,0.17-0.08,0.17-0.17v-0.91C1399.09,460.69,1399.01,460.61,1398.91,460.61z"/>
		</g>
		<path class="st18" d="M1409.9,463.65l2.25-1.51l12.5-0.36C1424.65,461.78,1417.62,463.94,1409.9,463.65z"/>
		<path class="st18" d="M1411.77,461.37l-1.43-1.99c0,0,11.94,0.61,14.07,1.86L1411.77,461.37z"/>
		<path class="st18" d="M1314.01,462.52l-1.21-1.72l-18.72-0.09C1294.08,460.72,1312.2,463.47,1314.01,462.52z"/>
		<path class="st18" d="M1313.56,458.27l-1.15,2.02l-18.33,0.22C1294.08,460.52,1304.1,457.99,1313.56,458.27z"/>
		<path class="st15" d="M1350.14,484.3c0,0-2.54-1.29-2.88-1.66c-0.34-0.37,0.44-2.29,1.26-3.72c0.82-1.43,0.63-1.03,0.63-1.03
			s0.99,0.3,1.68,0.09l0.45-0.08c0,0,0.71,0.03,0.62,0.29c-0.09,0.27-1.53,5.65-1.64,5.88
			C1350.14,484.3,1350.14,484.3,1350.14,484.3z"/>
		<path class="st15" d="M1328.29,484.71c0,0-2.54-1.29-2.88-1.66c-0.34-0.36,0.44-2.29,1.26-3.72c0.82-1.43,0.63-1.03,0.63-1.03
			s0.99,0.3,1.68,0.09l0.45-0.08c0,0,0.71,0.03,0.61,0.3c-0.09,0.27-1.53,5.65-1.64,5.87
			C1328.29,484.71,1328.29,484.71,1328.29,484.71z"/>
		<path class="st15" d="M1371.35,484.3c0,0-2.54-1.29-2.88-1.66c-0.34-0.37,0.44-2.29,1.26-3.72c0.82-1.43,0.63-1.03,0.63-1.03
			s0.99,0.3,1.67,0.09l0.45-0.08c0,0,0.71,0.03,0.62,0.29c-0.09,0.27-1.53,5.65-1.64,5.88S1371.35,484.3,1371.35,484.3z"/>
		<path class="st15" d="M1393.47,484.3c0,0-2.54-1.29-2.88-1.66c-0.34-0.37,0.44-2.29,1.26-3.72c0.82-1.43,0.63-1.03,0.63-1.03
			s0.99,0.3,1.67,0.09l0.45-0.08c0,0,0.71,0.03,0.62,0.29c-0.09,0.27-1.53,5.65-1.64,5.88S1393.47,484.3,1393.47,484.3z"/>
		<path class="st15" d="M1359.6,436.76c0,0-2.39,1.56-2.69,1.96c-0.3,0.4,0.69,2.23,1.66,3.56c0.97,1.33,0.74,0.95,0.74,0.95
			s0.95-0.4,1.65-0.27l0.46,0.03c0,0,0.7-0.11,0.58-0.36s-2.13-5.45-2.27-5.66C1359.6,436.76,1359.6,436.76,1359.6,436.76z"/>
		<path class="st15" d="M1316.3,437.23c0,0-2.39,1.56-2.69,1.96c-0.3,0.4,0.69,2.23,1.66,3.56c0.97,1.33,0.74,0.95,0.74,0.95
			s0.95-0.41,1.65-0.27l0.46,0.03c0,0,0.7-0.11,0.58-0.36s-2.13-5.45-2.27-5.66C1316.3,437.23,1316.3,437.23,1316.3,437.23z"/>
		<path class="st15" d="M1381.84,436.76c0,0-2.39,1.56-2.69,1.96c-0.3,0.4,0.69,2.23,1.66,3.56c0.97,1.33,0.74,0.95,0.74,0.95
			s0.95-0.4,1.65-0.27l0.46,0.03c0,0,0.7-0.11,0.58-0.36s-2.13-5.45-2.27-5.66C1381.84,436.76,1381.84,436.76,1381.84,436.76z"/>
		<path class="st15" d="M1338.66,436.76c0,0-2.39,1.56-2.69,1.96c-0.3,0.4,0.69,2.23,1.66,3.56c0.97,1.33,0.74,0.95,0.74,0.95
			s0.95-0.4,1.66-0.27l0.46,0.03c0,0,0.7-0.11,0.58-0.36s-2.13-5.45-2.27-5.66C1338.66,436.76,1338.66,436.76,1338.66,436.76z"/>
	</g>
	<g>
		<path class="st15" d="M595.12,455.21l-2.27,0.02l-3.16-3l-5.14-10.95c0,0-0.81-2.15-2.33-4.68c0,0-1.13,0.99-0.89,1.82
			c0.24,0.83,2.07,3.03,2.33,3.2c0.27,0.17,4.83,10.5,4.83,10.5l-2.17,3.16l-15.44,0.14l-3.38-3.2l-5.14-10.95
			c0,0-0.34-2.4-2.33-4.68c0,0-1.13,0.99-0.89,1.82c0.24,0.83,2.07,3.03,2.33,3.2c0.27,0.17,4.83,10.5,4.83,10.5l-2.31,3.36
			l-13.73,0.13l-3.58-3.39l-5.14-10.95c0,0-0.05-2.15-2.33-4.68c0,0-1.13,0.99-0.89,1.82c0.24,0.83,2.06,3.03,2.33,3.2
			c0.27,0.17,4.83,10.5,4.83,10.5l-2.45,3.56l-14.9,0.14l-3.79-3.59l-5.14-10.95c0,0-0.25-2.82-2.33-4.68c0,0-1.13,0.99-0.89,1.82
			c0.24,0.83,2.06,3.03,2.33,3.2c0.27,0.17,4.83,10.5,4.83,10.5l-2.59,3.76l-20.45,0.19c-9.16,0.42-17.26,2.63-17.26,2.63
			c4.83,2.73,17,3.28,17,3.28l9.54-0.03l2.45,3.18c0,0-4,10.56-4.25,10.75c-0.26,0.19-1.96,2.48-2.15,3.32s0.99,1.77,0.99,1.77
			c0.89-3.22,2.07-4.79,2.07-4.79l4.54-11.21l2.87-3.04l15.39-0.05l2.89,3.74c0,0-4,10.56-4.25,10.75
			c-0.26,0.19-1.96,2.48-2.15,3.32c-0.19,0.84,0.99,1.77,0.99,1.77c1.47-3.53,2.07-4.79,2.07-4.79l4.54-11.21l3.41-3.6l13.28-0.04
			l2.93,3.81c0,0-4,10.56-4.25,10.75c-0.26,0.19-1.96,2.48-2.15,3.32c-0.2,0.84,0.99,1.77,0.99,1.77c1.41-3.06,2.07-4.79,2.07-4.79
			l4.54-11.21l3.47-3.67l14.53-0.04l2.99,3.88c0,0-4,10.56-4.25,10.75c-0.26,0.19-1.96,2.48-2.16,3.32
			c-0.19,0.84,0.99,1.77,0.99,1.77c1.55-3.27,2.07-4.79,2.07-4.79l4.54-11.21l3.54-3.74l13.91-0.04
			c10.44,0.61,19.85-3.47,19.85-3.47C609.45,454.25,595.12,455.21,595.12,455.21z M591.66,455.24l-0.74,0.01l-0.96-1.8
			L591.66,455.24z M589.05,453.25l0.82,2.01l-2.17,0.02L589.05,453.25z M569.68,455.45l-0.82,0.01l-1.07-2.01L569.68,455.45z
			 M566.87,453.25l0.9,2.22l-2.4,0.02L566.87,453.25z M549.04,455.64l-0.9,0.01l-1.17-2.2L549.04,455.64z M546.05,453.25l0.98,2.41
			l-2.6,0.02L546.05,453.25z M526.9,455.84l-0.98,0.01l-1.28-2.4L526.9,455.84z M523.72,453.25l1.06,2.61l-2.83,0.03L523.72,453.25z
			 M512.35,464.01l-1.54-2.04l2.24-0.01L512.35,464.01z M513.26,463.76l0.84-1.81h0.69L513.26,463.76z M534.68,464.5l-1.96-2.61
			l2.85-0.01L534.68,464.5z M535.59,464.25l1.1-2.37h0.91L535.59,464.25z M555.5,464.5l-2.01-2.67l2.93-0.01L555.5,464.5z
			 M556.41,464.25l1.13-2.44h0.93L556.41,464.25z M577.68,464.5l-2.06-2.74l3-0.01L577.68,464.5z M578.59,464.25l1.16-2.51h0.96
			L578.59,464.25z"/>
		<path class="st14" d="M599.43,459.14l-95.14,1.13c-0.65,0.01-1.19-0.52-1.2-1.17l0,0c-0.01-0.65,0.52-1.2,1.17-1.2l95.14-1.13
			c0.65-0.01,1.19,0.52,1.2,1.17l0,0C600.61,458.59,600.08,459.13,599.43,459.14z"/>
		<g>
			<path class="st16" d="M515.85,459.45h-6.25c-0.34,0-0.63-0.28-0.63-0.62l0,0c0-0.34,0.28-0.62,0.63-0.62h6.25
				c0.34,0,0.62,0.28,0.62,0.62l0,0C516.47,459.17,516.19,459.45,515.85,459.45z"/>
			<path class="st16" d="M513.23,457.87c0,0,0.34-1.24,1.45-1.1c1.1,0.14,1.8,0.81,1.8,1.43c0,0.24-0.17,0.78-0.43,1.34
				c-0.41,0.89-1.06,1.82-1.65,1.7c-0.96-0.21-1.17-1.79-1.17-1.79s0.83-0.48,1.03,0.28c0.21,0.76-0.07,0.61,0.59,0.69
				c0.65,0.08,1.06-1.72,0.44-2.68c-0.62-0.96-1.31-0.47-1.24,0c0.07,0.47-0.83,1.51-0.83,0.83
				C513.23,457.87,513.23,457.87,513.23,457.87z"/>
			<path class="st17" d="M516.15,459.45L516.15,459.45c-0.39,0-0.72-0.32-0.72-0.72l0,0c0-0.39,0.32-0.72,0.72-0.72l0,0
				c0.39,0,0.72,0.32,0.72,0.72l0,0C516.87,459.13,516.54,459.45,516.15,459.45z"/>
			<path class="st16" d="M512.16,459.45L512.16,459.45c-0.1,0-0.17-0.08-0.17-0.17v-0.91c0-0.09,0.08-0.17,0.17-0.17l0,0
				c0.09,0,0.17,0.08,0.17,0.17v0.91C512.33,459.38,512.25,459.45,512.16,459.45z"/>
		</g>
		<g>
			<path class="st16" d="M527.08,459.29h-6.25c-0.34,0-0.63-0.28-0.63-0.62l0,0c0-0.34,0.28-0.62,0.63-0.62h6.25
				c0.34,0,0.62,0.28,0.62,0.62l0,0C527.71,459.01,527.43,459.29,527.08,459.29z"/>
			<path class="st16" d="M524.46,457.71c0,0,0.34-1.24,1.45-1.1c1.1,0.14,1.8,0.81,1.8,1.43c0,0.24-0.17,0.78-0.43,1.34
				c-0.41,0.89-1.06,1.82-1.65,1.7c-0.96-0.21-1.17-1.79-1.17-1.79s0.83-0.48,1.03,0.28c0.21,0.76-0.07,0.61,0.59,0.69
				c0.65,0.08,1.06-1.72,0.44-2.68c-0.62-0.96-1.31-0.47-1.24,0c0.07,0.47-0.83,1.51-0.83,0.83
				C524.46,457.71,524.46,457.71,524.46,457.71z"/>
			<path class="st17" d="M527.39,459.29L527.39,459.29c-0.39,0-0.72-0.32-0.72-0.72l0,0c0-0.39,0.32-0.72,0.72-0.72l0,0
				c0.39,0,0.72,0.32,0.72,0.72l0,0C528.1,458.97,527.78,459.29,527.39,459.29z"/>
			<path class="st16" d="M523.4,459.29L523.4,459.29c-0.09,0-0.17-0.08-0.17-0.17v-0.91c0-0.09,0.08-0.17,0.17-0.17l0,0
				c0.09,0,0.17,0.08,0.17,0.17v0.91C523.57,459.21,523.49,459.29,523.4,459.29z"/>
		</g>
		<g>
			<path class="st16" d="M538.52,459.49h-6.25c-0.34,0-0.62-0.28-0.62-0.62l0,0c0-0.34,0.28-0.62,0.62-0.62h6.25
				c0.34,0,0.62,0.28,0.62,0.62l0,0C539.14,459.21,538.86,459.49,538.52,459.49z"/>
			<path class="st16" d="M535.9,457.91c0,0,0.34-1.24,1.44-1.1c1.1,0.14,1.8,0.81,1.8,1.43c0,0.24-0.16,0.78-0.43,1.34
				c-0.41,0.89-1.06,1.82-1.65,1.7c-0.96-0.21-1.17-1.79-1.17-1.79s0.83-0.48,1.03,0.28c0.21,0.76-0.07,0.61,0.59,0.69
				c0.66,0.08,1.06-1.72,0.44-2.68c-0.62-0.96-1.31-0.47-1.24,0c0.07,0.47-0.83,1.51-0.83,0.83
				C535.9,457.91,535.9,457.91,535.9,457.91z"/>
			<path class="st17" d="M538.82,459.49L538.82,459.49c-0.39,0-0.72-0.32-0.72-0.72l0,0c0-0.39,0.32-0.72,0.72-0.72l0,0
				c0.4,0,0.72,0.32,0.72,0.72l0,0C539.54,459.17,539.22,459.49,538.82,459.49z"/>
			<path class="st16" d="M534.83,459.49L534.83,459.49c-0.09,0-0.17-0.08-0.17-0.17v-0.91c0-0.09,0.08-0.17,0.17-0.17l0,0
				c0.09,0,0.17,0.08,0.17,0.17v0.91C535.01,459.42,534.93,459.49,534.83,459.49z"/>
		</g>
		<g>
			<path class="st16" d="M548.65,459.39h-6.25c-0.34,0-0.62-0.28-0.62-0.63l0,0c0-0.34,0.28-0.62,0.62-0.62h6.25
				c0.34,0,0.62,0.28,0.62,0.62l0,0C549.28,459.11,549,459.39,548.65,459.39z"/>
			<path class="st16" d="M546.03,457.81c0,0,0.34-1.24,1.45-1.1c1.1,0.14,1.8,0.81,1.8,1.43c0,0.24-0.17,0.78-0.43,1.34
				c-0.41,0.89-1.06,1.82-1.65,1.7c-0.96-0.21-1.17-1.79-1.17-1.79s0.83-0.48,1.03,0.27c0.21,0.76-0.07,0.61,0.59,0.69
				c0.65,0.08,1.06-1.72,0.44-2.68s-1.31-0.47-1.24,0c0.07,0.47-0.83,1.51-0.83,0.83C546.03,457.81,546.03,457.81,546.03,457.81z"/>
			<path class="st17" d="M548.96,459.39L548.96,459.39c-0.39,0-0.72-0.32-0.72-0.72l0,0c0-0.39,0.32-0.72,0.72-0.72l0,0
				c0.39,0,0.72,0.32,0.72,0.72l0,0C549.67,459.07,549.35,459.39,548.96,459.39z"/>
			<path class="st16" d="M544.97,459.39L544.97,459.39c-0.1,0-0.17-0.08-0.17-0.17v-0.9c0-0.1,0.08-0.17,0.17-0.17l0,0
				c0.09,0,0.17,0.08,0.17,0.17v0.9C545.14,459.32,545.06,459.39,544.97,459.39z"/>
		</g>
		<g>
			<path class="st16" d="M559.33,459.28h-6.25c-0.34,0-0.62-0.28-0.62-0.62l0,0c0-0.34,0.28-0.63,0.62-0.63h6.25
				c0.34,0,0.62,0.28,0.62,0.63l0,0C559.96,458.99,559.68,459.28,559.33,459.28z"/>
			<path class="st16" d="M556.71,457.69c0,0,0.34-1.24,1.45-1.1c1.1,0.14,1.8,0.81,1.8,1.43c0,0.24-0.17,0.78-0.43,1.34
				c-0.41,0.89-1.06,1.82-1.65,1.7c-0.96-0.21-1.17-1.79-1.17-1.79s0.83-0.48,1.03,0.28c0.21,0.76-0.07,0.61,0.59,0.69
				c0.65,0.08,1.06-1.72,0.44-2.68c-0.62-0.96-1.31-0.47-1.24,0c0.07,0.47-0.83,1.51-0.83,0.83
				C556.71,457.69,556.71,457.69,556.71,457.69z"/>
			<path class="st17" d="M559.64,459.28L559.64,459.28c-0.39,0-0.72-0.32-0.72-0.72l0,0c0-0.4,0.32-0.72,0.72-0.72l0,0
				c0.39,0,0.72,0.32,0.72,0.72l0,0C560.35,458.95,560.03,459.28,559.64,459.28z"/>
			<path class="st16" d="M555.65,459.28L555.65,459.28c-0.09,0-0.17-0.08-0.17-0.17v-0.9c0-0.09,0.08-0.17,0.17-0.17l0,0
				c0.09,0,0.17,0.08,0.17,0.17v0.9C555.82,459.2,555.74,459.28,555.65,459.28z"/>
		</g>
		<g>
			<path class="st16" d="M570.69,459.32h-6.25c-0.34,0-0.62-0.28-0.62-0.62l0,0c0-0.34,0.28-0.63,0.62-0.63h6.25
				c0.34,0,0.62,0.28,0.62,0.63l0,0C571.32,459.03,571.03,459.32,570.69,459.32z"/>
			<path class="st16" d="M568.07,457.73c0,0,0.34-1.24,1.45-1.1c1.1,0.14,1.8,0.81,1.8,1.43c0,0.24-0.17,0.78-0.43,1.34
				c-0.41,0.89-1.06,1.82-1.65,1.7c-0.96-0.21-1.17-1.79-1.17-1.79s0.83-0.48,1.03,0.28c0.21,0.76-0.07,0.61,0.59,0.69
				c0.66,0.08,1.06-1.72,0.44-2.68s-1.31-0.47-1.24,0c0.07,0.47-0.83,1.51-0.83,0.83C568.07,457.73,568.07,457.73,568.07,457.73z"/>
			<path class="st17" d="M571,459.32L571,459.32c-0.4,0-0.72-0.32-0.72-0.72l0,0c0-0.4,0.32-0.72,0.72-0.72l0,0
				c0.39,0,0.72,0.32,0.72,0.72l0,0C571.71,458.99,571.39,459.32,571,459.32z"/>
			<path class="st16" d="M567.01,459.32L567.01,459.32c-0.1,0-0.17-0.08-0.17-0.17v-0.9c0-0.09,0.08-0.17,0.17-0.17l0,0
				c0.09,0,0.17,0.08,0.17,0.17v0.9C567.18,459.24,567.1,459.32,567.01,459.32z"/>
		</g>
		<g>
			<path class="st16" d="M581.11,459.18h-6.25c-0.34,0-0.62-0.28-0.62-0.62l0,0c0-0.34,0.28-0.62,0.62-0.62h6.25
				c0.34,0,0.63,0.28,0.63,0.62l0,0C581.74,458.9,581.46,459.18,581.11,459.18z"/>
			<path class="st16" d="M578.49,457.6c0,0,0.34-1.24,1.44-1.1c1.1,0.14,1.8,0.81,1.8,1.43c0,0.24-0.17,0.78-0.43,1.34
				c-0.41,0.89-1.06,1.82-1.65,1.7c-0.96-0.21-1.17-1.79-1.17-1.79s0.83-0.48,1.03,0.28c0.21,0.76-0.07,0.61,0.59,0.69
				c0.66,0.08,1.06-1.72,0.44-2.68s-1.31-0.47-1.24,0c0.07,0.47-0.83,1.51-0.83,0.83C578.49,457.6,578.49,457.6,578.49,457.6z"/>
			<path class="st17" d="M581.42,459.18L581.42,459.18c-0.4,0-0.72-0.32-0.72-0.72l0,0c0-0.4,0.32-0.72,0.72-0.72l0,0
				c0.39,0,0.72,0.32,0.72,0.72l0,0C582.14,458.86,581.81,459.18,581.42,459.18z"/>
			<path class="st16" d="M577.43,459.18L577.43,459.18c-0.09,0-0.17-0.08-0.17-0.17v-0.91c0-0.09,0.08-0.17,0.17-0.17l0,0
				c0.09,0,0.17,0.08,0.17,0.17v0.91C577.6,459.11,577.52,459.18,577.43,459.18z"/>
		</g>
		<g>
			<path class="st16" d="M592.21,458.92h-6.25c-0.34,0-0.63-0.28-0.63-0.62l0,0c0-0.34,0.28-0.63,0.63-0.63h6.25
				c0.34,0,0.62,0.28,0.62,0.63l0,0C592.83,458.63,592.55,458.92,592.21,458.92z"/>
			<path class="st16" d="M589.59,457.33c0,0,0.34-1.24,1.45-1.1c1.1,0.14,1.8,0.81,1.8,1.43c0,0.24-0.17,0.78-0.43,1.34
				c-0.41,0.89-1.06,1.82-1.65,1.7c-0.96-0.21-1.17-1.79-1.17-1.79s0.83-0.48,1.03,0.27c0.21,0.76-0.07,0.61,0.59,0.69
				c0.65,0.08,1.06-1.72,0.44-2.68c-0.62-0.96-1.31-0.47-1.24,0c0.07,0.47-0.83,1.51-0.83,0.83
				C589.59,457.33,589.59,457.33,589.59,457.33z"/>
			<path class="st17" d="M592.51,458.92L592.51,458.92c-0.39,0-0.72-0.32-0.72-0.72l0,0c0-0.39,0.32-0.72,0.72-0.72l0,0
				c0.39,0,0.72,0.32,0.72,0.72l0,0C593.23,458.59,592.91,458.92,592.51,458.92z"/>
			<path class="st16" d="M588.52,458.92L588.52,458.92c-0.09,0-0.17-0.08-0.17-0.17v-0.9c0-0.09,0.08-0.17,0.17-0.17l0,0
				c0.09,0,0.17,0.08,0.17,0.17v0.9C588.7,458.84,588.62,458.92,588.52,458.92z"/>
		</g>
		<path class="st18" d="M599.51,455.88l2.25,1.51l12.5,0.36C614.26,457.75,607.23,455.59,599.51,455.88z"/>
		<path class="st18" d="M601.38,458.16l-1.43,1.99c0,0,11.94-0.61,14.07-1.86L601.38,458.16z"/>
		<path class="st18" d="M503.62,457.01l-1.21,1.72l-18.73,0.09C483.69,458.81,501.81,456.06,503.62,457.01z"/>
		<path class="st18" d="M503.17,461.26l-1.15-2.02l-18.33-0.23C483.69,459.01,493.71,461.54,503.17,461.26z"/>
		<path class="st15" d="M539.75,435.23c0,0-2.54,1.29-2.88,1.66c-0.34,0.37,0.44,2.29,1.26,3.72c0.82,1.43,0.63,1.03,0.63,1.03
			s0.99-0.3,1.67-0.09l0.45,0.08c0,0,0.71-0.03,0.61-0.29c-0.09-0.27-1.53-5.65-1.64-5.88
			C539.75,435.23,539.75,435.23,539.75,435.23z"/>
		<path class="st15" d="M517.9,434.82c0,0-2.54,1.29-2.88,1.66c-0.34,0.37,0.44,2.29,1.26,3.72c0.82,1.43,0.63,1.03,0.63,1.03
			s0.99-0.3,1.67-0.09l0.45,0.08c0,0,0.71-0.03,0.61-0.29c-0.09-0.27-1.53-5.65-1.64-5.88C517.9,434.82,517.9,434.82,517.9,434.82z"
			/>
		<path class="st15" d="M560.96,435.23c0,0-2.54,1.29-2.88,1.66c-0.34,0.37,0.44,2.29,1.26,3.72c0.82,1.43,0.63,1.03,0.63,1.03
			s0.99-0.3,1.67-0.09l0.45,0.08c0,0,0.71-0.03,0.62-0.29c-0.09-0.27-1.53-5.65-1.64-5.88S560.96,435.23,560.96,435.23z"/>
		<path class="st15" d="M583.08,435.23c0,0-2.54,1.29-2.88,1.66c-0.34,0.37,0.44,2.29,1.26,3.72c0.82,1.43,0.63,1.03,0.63,1.03
			s0.99-0.3,1.67-0.09l0.45,0.08c0,0,0.71-0.03,0.61-0.29c-0.09-0.27-1.53-5.65-1.64-5.88S583.08,435.23,583.08,435.23z"/>
		<path class="st15" d="M549.21,482.76c0,0-2.39-1.56-2.69-1.96c-0.3-0.4,0.69-2.23,1.66-3.56c0.97-1.33,0.74-0.96,0.74-0.96
			s0.95,0.4,1.65,0.27l0.46-0.03c0,0,0.7,0.1,0.58,0.36c-0.12,0.25-2.13,5.45-2.27,5.67C549.21,482.76,549.21,482.76,549.21,482.76z
			"/>
		<path class="st15" d="M505.91,482.3c0,0-2.39-1.56-2.69-1.96s0.69-2.23,1.66-3.56c0.97-1.33,0.74-0.96,0.74-0.96
			s0.95,0.4,1.65,0.27l0.46-0.03c0,0,0.7,0.1,0.58,0.36c-0.12,0.25-2.13,5.45-2.27,5.66C505.91,482.3,505.91,482.3,505.91,482.3z"/>
		<path class="st15" d="M571.45,482.76c0,0-2.39-1.56-2.69-1.96c-0.3-0.4,0.69-2.23,1.66-3.56c0.97-1.33,0.74-0.96,0.74-0.96
			s0.95,0.4,1.65,0.27l0.46-0.03c0,0,0.7,0.1,0.58,0.36c-0.12,0.25-2.13,5.45-2.27,5.67C571.45,482.76,571.45,482.76,571.45,482.76z
			"/>
		<path class="st15" d="M528.27,482.76c0,0-2.39-1.56-2.69-1.96c-0.3-0.4,0.69-2.23,1.66-3.56c0.97-1.33,0.74-0.96,0.74-0.96
			s0.95,0.4,1.66,0.27l0.46-0.03c0,0,0.7,0.1,0.58,0.36c-0.12,0.25-2.13,5.45-2.27,5.67C528.27,482.76,528.27,482.76,528.27,482.76z
			"/>
	</g>
	<g>
		<path class="st15" d="M1022.71,455.98l-2.27,0.02l-3.16-3l-5.14-10.95c0,0-0.81-2.15-2.33-4.68c0,0-1.13,0.99-0.89,1.82
			c0.24,0.83,2.06,3.03,2.33,3.2c0.27,0.17,4.83,10.5,4.83,10.5l-2.17,3.16l-15.44,0.14l-3.38-3.2l-5.14-10.95
			c0,0-0.34-2.4-2.33-4.68c0,0-1.13,0.99-0.89,1.82c0.24,0.83,2.06,3.03,2.33,3.2c0.27,0.17,4.83,10.5,4.83,10.5l-2.31,3.36
			l-13.73,0.13l-3.57-3.39l-5.14-10.95c0,0-0.05-2.15-2.33-4.68c0,0-1.13,0.99-0.89,1.82c0.24,0.83,2.07,3.03,2.33,3.2
			c0.27,0.17,4.83,10.5,4.83,10.5l-2.45,3.56l-14.9,0.14l-3.79-3.59l-5.14-10.95c0,0-0.25-2.82-2.33-4.68c0,0-1.13,0.99-0.89,1.82
			c0.24,0.83,2.06,3.03,2.33,3.2c0.27,0.17,4.83,10.5,4.83,10.5l-2.59,3.76l-20.45,0.19c-9.16,0.42-17.26,2.63-17.26,2.63
			c4.83,2.73,17,3.29,17,3.29l9.54-0.03l2.45,3.18c0,0-4,10.56-4.25,10.75c-0.26,0.19-1.96,2.48-2.15,3.32
			c-0.2,0.84,0.99,1.77,0.99,1.77c0.89-3.22,2.07-4.79,2.07-4.79l4.54-11.22l2.87-3.04l15.39-0.05l2.88,3.74c0,0-4,10.56-4.25,10.75
			c-0.26,0.19-1.96,2.48-2.16,3.32c-0.19,0.84,0.99,1.77,0.99,1.77c1.47-3.53,2.07-4.8,2.07-4.8l4.54-11.21l3.41-3.6l13.28-0.04
			l2.93,3.81c0,0-4,10.56-4.25,10.75c-0.26,0.19-1.96,2.48-2.15,3.32c-0.19,0.84,0.99,1.77,0.99,1.77c1.41-3.06,2.07-4.8,2.07-4.8
			l4.54-11.21l3.47-3.67l14.53-0.05l2.99,3.88c0,0-4,10.56-4.25,10.75c-0.26,0.19-1.96,2.48-2.15,3.32
			c-0.19,0.84,0.99,1.77,0.99,1.77c1.56-3.27,2.07-4.8,2.07-4.8l4.54-11.21l3.54-3.74l13.91-0.04c10.44,0.61,19.85-3.47,19.85-3.47
			C1037.04,455.02,1022.71,455.98,1022.71,455.98z M1019.25,456.01l-0.74,0.01l-0.96-1.8L1019.25,456.01z M1016.64,454.01l0.81,2.01
			l-2.18,0.02L1016.64,454.01z M997.26,456.21l-0.82,0.01l-1.07-2.01L997.26,456.21z M994.46,454.01l0.9,2.22l-2.4,0.02
			L994.46,454.01z M976.63,456.4l-0.9,0.01l-1.17-2.2L976.63,456.4z M973.64,454.01l0.98,2.41l-2.6,0.03L973.64,454.01z
			 M954.49,456.6l-0.98,0.01l-1.28-2.4L954.49,456.6z M951.31,454.01l1.06,2.61l-2.82,0.03L951.31,454.01z M939.94,464.77
			l-1.53-2.04l2.24-0.01L939.94,464.77z M940.85,464.53l0.84-1.81h0.69L940.85,464.53z M962.27,465.27l-1.96-2.61l2.85-0.01
			L962.27,465.27z M963.18,465.02l1.1-2.37h0.91L963.18,465.02z M983.09,465.27l-2-2.67l2.92-0.01L983.09,465.27z M984,465.02
			l1.13-2.44h0.93L984,465.02z M1005.27,465.27l-2.06-2.74l3-0.01L1005.27,465.27z M1006.18,465.02l1.16-2.51h0.96L1006.18,465.02z"
			/>
		<path class="st14" d="M1027.02,459.9l-95.14,1.13c-0.65,0.01-1.2-0.52-1.2-1.17l0,0c-0.01-0.65,0.52-1.2,1.18-1.2l95.14-1.13
			c0.65-0.01,1.2,0.52,1.2,1.17l0,0C1028.2,459.35,1027.67,459.89,1027.02,459.9z"/>
		<g>
			<path class="st16" d="M943.43,460.22h-6.25c-0.34,0-0.62-0.28-0.62-0.62l0,0c0-0.34,0.28-0.62,0.62-0.62h6.25
				c0.34,0,0.62,0.28,0.62,0.62l0,0C944.06,459.94,943.78,460.22,943.43,460.22z"/>
			<path class="st16" d="M940.82,458.64c0,0,0.34-1.24,1.44-1.1c1.1,0.14,1.8,0.81,1.8,1.43c0,0.24-0.17,0.78-0.43,1.34
				c-0.41,0.89-1.06,1.82-1.65,1.7c-0.96-0.21-1.17-1.79-1.17-1.79s0.83-0.48,1.03,0.28c0.21,0.76-0.07,0.61,0.59,0.69
				c0.66,0.08,1.06-1.72,0.44-2.68s-1.31-0.47-1.24,0c0.07,0.47-0.83,1.51-0.83,0.83C940.82,458.64,940.82,458.64,940.82,458.64z"/>
			<path class="st17" d="M943.74,460.22L943.74,460.22c-0.39,0-0.72-0.32-0.72-0.72l0,0c0-0.39,0.32-0.72,0.72-0.72l0,0
				c0.4,0,0.72,0.32,0.72,0.72l0,0C944.46,459.9,944.13,460.22,943.74,460.22z"/>
			<path class="st16" d="M939.75,460.22L939.75,460.22c-0.09,0-0.17-0.08-0.17-0.17v-0.91c0-0.09,0.08-0.17,0.17-0.17l0,0
				c0.09,0,0.17,0.08,0.17,0.17v0.91C939.92,460.14,939.84,460.22,939.75,460.22z"/>
		</g>
		<g>
			<path class="st16" d="M954.67,460.05h-6.25c-0.34,0-0.62-0.28-0.62-0.62l0,0c0-0.34,0.28-0.62,0.62-0.62h6.25
				c0.34,0,0.63,0.28,0.63,0.62l0,0C955.3,459.77,955.01,460.05,954.67,460.05z"/>
			<path class="st16" d="M952.05,458.47c0,0,0.34-1.24,1.44-1.1c1.1,0.14,1.8,0.81,1.8,1.43c0,0.24-0.17,0.78-0.43,1.34
				c-0.41,0.89-1.06,1.82-1.65,1.7c-0.96-0.21-1.17-1.79-1.17-1.79s0.83-0.48,1.03,0.28c0.21,0.76-0.07,0.61,0.59,0.69
				c0.66,0.08,1.06-1.72,0.44-2.68c-0.62-0.96-1.31-0.47-1.24,0c0.07,0.47-0.83,1.51-0.83,0.83
				C952.05,458.47,952.05,458.47,952.05,458.47z"/>
			<path class="st17" d="M954.98,460.05L954.98,460.05c-0.4,0-0.72-0.32-0.72-0.72l0,0c0-0.39,0.32-0.72,0.72-0.72l0,0
				c0.39,0,0.72,0.32,0.72,0.72l0,0C955.69,459.73,955.37,460.05,954.98,460.05z"/>
			<path class="st16" d="M950.98,460.05L950.98,460.05c-0.09,0-0.17-0.08-0.17-0.17v-0.91c0-0.09,0.08-0.17,0.17-0.17l0,0
				c0.09,0,0.17,0.08,0.17,0.17v0.91C951.16,459.98,951.08,460.05,950.98,460.05z"/>
		</g>
		<g>
			<path class="st16" d="M966.11,460.26h-6.25c-0.34,0-0.62-0.28-0.62-0.62l0,0c0-0.34,0.28-0.62,0.62-0.62h6.25
				c0.34,0,0.62,0.28,0.62,0.62l0,0C966.73,459.98,966.45,460.26,966.11,460.26z"/>
			<path class="st16" d="M963.49,458.68c0,0,0.34-1.24,1.45-1.1c1.1,0.14,1.8,0.81,1.8,1.43c0,0.24-0.17,0.78-0.43,1.34
				c-0.41,0.89-1.06,1.82-1.65,1.7c-0.96-0.21-1.17-1.79-1.17-1.79s0.83-0.48,1.03,0.28c0.21,0.76-0.07,0.61,0.59,0.69
				c0.66,0.08,1.06-1.72,0.44-2.68c-0.62-0.96-1.31-0.47-1.24,0c0.07,0.47-0.83,1.51-0.83,0.83
				C963.49,458.68,963.49,458.68,963.49,458.68z"/>
			<path class="st17" d="M966.41,460.26L966.41,460.26c-0.4,0-0.72-0.32-0.72-0.72l0,0c0-0.39,0.32-0.72,0.72-0.72l0,0
				c0.39,0,0.72,0.32,0.72,0.72l0,0C967.13,459.94,966.81,460.26,966.41,460.26z"/>
			<path class="st16" d="M962.42,460.26L962.42,460.26c-0.09,0-0.17-0.08-0.17-0.17v-0.91c0-0.09,0.08-0.17,0.17-0.17l0,0
				c0.09,0,0.17,0.08,0.17,0.17v0.91C962.6,460.18,962.52,460.26,962.42,460.26z"/>
		</g>
		<g>
			<path class="st16" d="M976.24,460.16h-6.25c-0.34,0-0.62-0.28-0.62-0.62l0,0c0-0.34,0.28-0.62,0.62-0.62h6.25
				c0.34,0,0.62,0.28,0.62,0.62l0,0C976.87,459.88,976.59,460.16,976.24,460.16z"/>
			<path class="st16" d="M973.62,458.58c0,0,0.34-1.24,1.44-1.1c1.1,0.14,1.8,0.81,1.8,1.43c0,0.24-0.16,0.78-0.43,1.34
				c-0.41,0.89-1.06,1.82-1.65,1.7c-0.96-0.21-1.17-1.79-1.17-1.79s0.83-0.48,1.03,0.28c0.21,0.76-0.06,0.61,0.59,0.69
				c0.66,0.08,1.06-1.72,0.44-2.68s-1.31-0.47-1.24,0c0.07,0.47-0.83,1.51-0.83,0.83C973.62,458.58,973.62,458.58,973.62,458.58z"/>
			<path class="st17" d="M976.55,460.16L976.55,460.16c-0.39,0-0.71-0.32-0.71-0.72l0,0c0-0.39,0.32-0.72,0.71-0.72l0,0
				c0.4,0,0.72,0.32,0.72,0.72l0,0C977.26,459.83,976.94,460.16,976.55,460.16z"/>
			<path class="st16" d="M972.56,460.16L972.56,460.16c-0.09,0-0.17-0.08-0.17-0.17v-0.91c0-0.09,0.08-0.17,0.17-0.17l0,0
				c0.09,0,0.17,0.08,0.17,0.17v0.91C972.73,460.08,972.65,460.16,972.56,460.16z"/>
		</g>
		<g>
			<path class="st16" d="M986.92,460.04h-6.25c-0.34,0-0.62-0.28-0.62-0.63l0,0c0-0.34,0.28-0.62,0.62-0.62h6.25
				c0.34,0,0.63,0.28,0.63,0.62l0,0C987.55,459.76,987.27,460.04,986.92,460.04z"/>
			<path class="st16" d="M984.3,458.46c0,0,0.34-1.24,1.44-1.1c1.1,0.14,1.8,0.81,1.8,1.43c0,0.24-0.17,0.78-0.43,1.34
				c-0.41,0.89-1.06,1.82-1.65,1.7c-0.96-0.21-1.17-1.79-1.17-1.79s0.83-0.48,1.03,0.27c0.21,0.76-0.06,0.61,0.59,0.69
				c0.66,0.08,1.06-1.72,0.44-2.68s-1.31-0.47-1.24,0c0.07,0.47-0.83,1.51-0.83,0.83C984.3,458.46,984.3,458.46,984.3,458.46z"/>
			<path class="st17" d="M987.23,460.04L987.23,460.04c-0.4,0-0.72-0.32-0.72-0.72l0,0c0-0.4,0.32-0.72,0.72-0.72l0,0
				c0.39,0,0.72,0.32,0.72,0.72l0,0C987.94,459.72,987.62,460.04,987.23,460.04z"/>
			<path class="st16" d="M983.24,460.04L983.24,460.04c-0.09,0-0.17-0.08-0.17-0.17v-0.9c0-0.1,0.08-0.17,0.17-0.17l0,0
				c0.1,0,0.17,0.08,0.17,0.17v0.9C983.41,459.96,983.33,460.04,983.24,460.04z"/>
		</g>
		<g>
			<path class="st16" d="M998.28,460.08h-6.25c-0.34,0-0.62-0.28-0.62-0.62l0,0c0-0.34,0.28-0.63,0.62-0.63h6.25
				c0.34,0,0.62,0.28,0.62,0.63l0,0C998.9,459.8,998.62,460.08,998.28,460.08z"/>
			<path class="st16" d="M995.66,458.5c0,0,0.35-1.24,1.45-1.1c1.1,0.14,1.8,0.81,1.8,1.43c0,0.24-0.16,0.78-0.43,1.34
				c-0.41,0.89-1.06,1.82-1.65,1.7c-0.96-0.21-1.17-1.79-1.17-1.79s0.83-0.48,1.03,0.27c0.21,0.76-0.07,0.61,0.59,0.69
				c0.66,0.08,1.06-1.72,0.44-2.68s-1.31-0.47-1.24,0c0.07,0.47-0.83,1.51-0.83,0.83C995.66,458.5,995.66,458.5,995.66,458.5z"/>
			<path class="st17" d="M998.58,460.08L998.58,460.08c-0.39,0-0.72-0.32-0.72-0.72l0,0c0-0.4,0.32-0.72,0.72-0.72l0,0
				c0.4,0,0.72,0.32,0.72,0.72l0,0C999.3,459.76,998.98,460.08,998.58,460.08z"/>
			<path class="st16" d="M994.59,460.08L994.59,460.08c-0.09,0-0.17-0.08-0.17-0.17v-0.9c0-0.09,0.08-0.17,0.17-0.17l0,0
				c0.09,0,0.17,0.08,0.17,0.17v0.9C994.77,460,994.69,460.08,994.59,460.08z"/>
		</g>
		<g>
			<path class="st16" d="M1008.7,459.95h-6.25c-0.34,0-0.63-0.28-0.63-0.62l0,0c0-0.34,0.28-0.63,0.63-0.63h6.25
				c0.34,0,0.62,0.28,0.62,0.63l0,0C1009.33,459.67,1009.05,459.95,1008.7,459.95z"/>
			<path class="st16" d="M1006.08,458.37c0,0,0.34-1.24,1.45-1.1c1.1,0.14,1.8,0.81,1.8,1.43c0,0.24-0.17,0.78-0.43,1.34
				c-0.41,0.89-1.06,1.82-1.65,1.7c-0.96-0.21-1.17-1.79-1.17-1.79s0.83-0.48,1.03,0.27c0.21,0.76-0.07,0.61,0.59,0.69
				c0.65,0.08,1.06-1.72,0.44-2.68c-0.62-0.96-1.31-0.47-1.24,0c0.07,0.47-0.83,1.51-0.83,0.83
				C1006.08,458.37,1006.08,458.37,1006.08,458.37z"/>
			<path class="st17" d="M1009.01,459.95L1009.01,459.95c-0.39,0-0.72-0.32-0.72-0.72l0,0c0-0.4,0.32-0.72,0.72-0.72l0,0
				c0.39,0,0.72,0.32,0.72,0.72l0,0C1009.72,459.63,1009.4,459.95,1009.01,459.95z"/>
			<path class="st16" d="M1005.02,459.95L1005.02,459.95c-0.1,0-0.17-0.08-0.17-0.17v-0.9c0-0.09,0.08-0.17,0.17-0.17l0,0
				c0.09,0,0.17,0.08,0.17,0.17v0.9C1005.19,459.87,1005.11,459.95,1005.02,459.95z"/>
		</g>
		<g>
			<path class="st16" d="M1019.8,459.68h-6.25c-0.34,0-0.62-0.28-0.62-0.62l0,0c0-0.34,0.28-0.62,0.62-0.62h6.25
				c0.34,0,0.63,0.28,0.63,0.62l0,0C1020.43,459.4,1020.14,459.68,1019.8,459.68z"/>
			<path class="st16" d="M1017.18,458.1c0,0,0.34-1.24,1.44-1.1c1.1,0.14,1.8,0.81,1.8,1.43c0,0.24-0.17,0.78-0.43,1.34
				c-0.41,0.89-1.06,1.82-1.65,1.7c-0.96-0.21-1.17-1.79-1.17-1.79s0.83-0.48,1.03,0.28c0.21,0.76-0.07,0.61,0.59,0.69
				c0.66,0.08,1.06-1.72,0.44-2.68c-0.62-0.96-1.31-0.47-1.24,0c0.07,0.47-0.83,1.51-0.83,0.83
				C1017.18,458.1,1017.18,458.1,1017.18,458.1z"/>
			<path class="st17" d="M1020.1,459.68L1020.1,459.68c-0.4,0-0.72-0.32-0.72-0.72l0,0c0-0.39,0.32-0.72,0.72-0.72l0,0
				c0.39,0,0.72,0.32,0.72,0.72l0,0C1020.82,459.36,1020.5,459.68,1020.1,459.68z"/>
			<path class="st16" d="M1016.11,459.68L1016.11,459.68c-0.09,0-0.17-0.08-0.17-0.17v-0.91c0-0.09,0.08-0.17,0.17-0.17l0,0
				c0.09,0,0.17,0.08,0.17,0.17v0.91C1016.29,459.6,1016.21,459.68,1016.11,459.68z"/>
		</g>
		<path class="st18" d="M1027.1,456.64l2.25,1.51l12.5,0.36C1041.85,458.51,1034.82,456.35,1027.1,456.64z"/>
		<path class="st18" d="M1028.97,458.92l-1.43,1.99c0,0,11.94-0.61,14.07-1.86L1028.97,458.92z"/>
		<path class="st18" d="M931.21,457.77l-1.21,1.72l-18.72,0.09C911.28,459.58,929.4,456.83,931.21,457.77z"/>
		<path class="st18" d="M930.76,462.02l-1.15-2.02l-18.33-0.22C911.28,459.77,921.3,462.3,930.76,462.02z"/>
		<path class="st15" d="M967.34,436c0,0-2.54,1.29-2.89,1.66c-0.34,0.37,0.44,2.29,1.26,3.72c0.82,1.43,0.63,1.03,0.63,1.03
			s0.99-0.3,1.67-0.09l0.45,0.08c0,0,0.71-0.03,0.62-0.3c-0.09-0.26-1.53-5.65-1.64-5.87C967.34,436,967.34,436,967.34,436z"/>
		<path class="st15" d="M945.49,435.58c0,0-2.54,1.29-2.88,1.66c-0.34,0.37,0.44,2.29,1.26,3.72c0.82,1.43,0.63,1.03,0.63,1.03
			s0.99-0.3,1.67-0.09l0.45,0.08c0,0,0.71-0.03,0.62-0.29c-0.09-0.27-1.53-5.65-1.64-5.88S945.49,435.58,945.49,435.58z"/>
		<path class="st15" d="M988.55,436c0,0-2.54,1.29-2.88,1.66c-0.34,0.37,0.44,2.29,1.26,3.72c0.82,1.43,0.63,1.03,0.63,1.03
			s0.99-0.3,1.67-0.09l0.45,0.08c0,0,0.71-0.03,0.62-0.3c-0.09-0.26-1.53-5.65-1.64-5.87C988.55,436,988.55,436,988.55,436z"/>
		<path class="st15" d="M1010.67,436c0,0-2.54,1.29-2.88,1.66c-0.34,0.37,0.44,2.29,1.26,3.72c0.82,1.43,0.63,1.03,0.63,1.03
			s0.99-0.3,1.67-0.09l0.45,0.08c0,0,0.71-0.03,0.62-0.3c-0.09-0.26-1.53-5.65-1.64-5.87C1010.67,436,1010.67,436,1010.67,436z"/>
		<path class="st15" d="M976.8,483.53c0,0-2.39-1.56-2.69-1.96c-0.3-0.4,0.69-2.23,1.66-3.56c0.97-1.33,0.74-0.95,0.74-0.95
			s0.95,0.4,1.66,0.27l0.46-0.03c0,0,0.7,0.1,0.58,0.36c-0.12,0.25-2.13,5.45-2.27,5.66C976.8,483.53,976.8,483.53,976.8,483.53z"/>
		<path class="st15" d="M933.5,483.06c0,0-2.39-1.56-2.69-1.96c-0.3-0.4,0.69-2.23,1.66-3.56c0.97-1.33,0.74-0.96,0.74-0.96
			s0.95,0.4,1.66,0.27l0.46-0.03c0,0,0.7,0.1,0.58,0.36c-0.12,0.25-2.13,5.45-2.27,5.66C933.5,483.06,933.5,483.06,933.5,483.06z"/>
		<path class="st15" d="M999.04,483.53c0,0-2.39-1.56-2.69-1.96c-0.3-0.4,0.69-2.23,1.66-3.56c0.97-1.33,0.74-0.95,0.74-0.95
			s0.95,0.4,1.66,0.27l0.46-0.03c0,0,0.7,0.1,0.58,0.36c-0.12,0.25-2.13,5.45-2.26,5.66C999.04,483.53,999.04,483.53,999.04,483.53z
			"/>
		<path class="st15" d="M955.86,483.53c0,0-2.39-1.56-2.69-1.96c-0.3-0.4,0.69-2.23,1.66-3.56c0.97-1.33,0.74-0.95,0.74-0.95
			s0.95,0.4,1.66,0.27l0.46-0.03c0,0,0.7,0.1,0.58,0.36c-0.12,0.25-2.13,5.45-2.27,5.66C955.86,483.53,955.86,483.53,955.86,483.53z
			"/>
	</g>
</g>
<rect x="779.53" y="692.51" class="st19" width="362.94" height="26.47"/>
<text transform="matrix(1.006 0 0 1 814.1891 713.5098)" class="st0 st1 st20">Medallero panamericano</text>
<g>
	<g>
		<rect x="1122.77" y="876.01" class="st19" width="44.24" height="15.95"/>
		<text transform="matrix(1 0 0 1 1122.767 891.0134)" class="st0 st21 st22">Oro</text>
	</g>
	<path class="st8" d="M1117.65,873.01l-2.67,8.06c-0.06,0.19-0.25,0.31-0.43,0.31H1113l-0.31-0.93h1.52l2.36-7.13h-3.01l-1.61,4.93
		l-0.5-1.46l1.3-4.09c0.06-0.19,0.25-0.31,0.43-0.31h4c0.16,0,0.28,0.06,0.37,0.19C1117.68,872.7,1117.68,872.86,1117.65,873.01z
		 M1107.17,881.07l-2.67-8.06c-0.06-0.16-0.03-0.31,0.06-0.4c0.09-0.12,0.22-0.19,0.37-0.19h4c0.19,0,0.37,0.12,0.43,0.31l2.85,8.68
		h-4.62C1107.41,881.41,1107.23,881.29,1107.17,881.07z M1105.58,873.32l2.36,7.16h3.01l-2.36-7.16H1105.58z M1115.54,886.53
		c0,2.45-1.98,4.47-4.47,4.47s-4.47-2.02-4.47-4.47c0-2.45,1.98-4.5,4.47-4.5S1115.54,884.05,1115.54,886.53z"/>
</g>
<g>
	<g>
		<rect x="1124.12" y="936.9" class="st19" width="64.79" height="16.25"/>
		<text transform="matrix(1 0 0 1 1124.1117 951.9022)" class="st0 st21 st22">Bronce</text>
	</g>
	<path class="st23" d="M1119.2,933.84l-2.67,8.06c-0.06,0.19-0.25,0.31-0.43,0.31h-1.55l-0.31-0.93h1.52l2.36-7.13h-3.01l-1.61,4.93
		l-0.5-1.46l1.3-4.09c0.06-0.19,0.25-0.31,0.43-0.31h4c0.16,0,0.28,0.06,0.37,0.19C1119.24,933.53,1119.24,933.68,1119.2,933.84z
		 M1108.72,941.9l-2.67-8.06c-0.06-0.16-0.03-0.31,0.06-0.4c0.09-0.12,0.22-0.19,0.37-0.19h4c0.19,0,0.37,0.12,0.43,0.31l2.85,8.68
		h-4.62C1108.97,942.24,1108.79,942.12,1108.72,941.9z M1107.14,934.15l2.36,7.16h3.01l-2.36-7.16H1107.14z M1117.1,947.36
		c0,2.45-1.98,4.47-4.47,4.47s-4.47-2.02-4.47-4.47s1.98-4.5,4.47-4.5S1117.1,944.88,1117.1,947.36z"/>
</g>
<g>
	<g>
		<rect x="1123.92" y="907.28" class="st19" width="53.91" height="20.2"/>
		<text transform="matrix(1 0 0 1 1123.9144 922.2753)" class="st0 st21 st22">Plata </text>
	</g>
	<path class="st24" d="M1118.82,904.07l-2.67,8.06c-0.06,0.19-0.25,0.31-0.43,0.31h-1.55l-0.31-0.93h1.52l2.36-7.13h-3.01
		l-1.61,4.93l-0.5-1.46l1.3-4.09c0.06-0.19,0.25-0.31,0.43-0.31h4c0.16,0,0.28,0.06,0.37,0.19
		C1118.85,903.76,1118.85,903.92,1118.82,904.07z M1108.34,912.13l-2.67-8.06c-0.06-0.16-0.03-0.31,0.06-0.4
		c0.09-0.12,0.22-0.19,0.37-0.19h4c0.19,0,0.37,0.12,0.43,0.31l2.85,8.68h-4.6C1108.59,912.47,1108.4,912.35,1108.34,912.13z
		 M1106.76,904.38l2.36,7.16h3.01l-2.36-7.16H1106.76z M1116.71,917.59c0,2.45-1.98,4.47-4.47,4.47s-4.47-2.02-4.47-4.47
		s1.98-4.5,4.47-4.5C1114.73,913.09,1116.71,915.11,1116.71,917.59z"/>
</g>
<g>
	<rect x="1107.15" y="969.46" class="st19" width="152.92" height="19.46"/>
	<text transform="matrix(1 0 0 1 1107.1488 980.7059)" class="st0 st25 st26">Datos desde 2011 al 2021</text>
</g>
<g>
	<g>
		<rect x="713.68" y="890.88" class="st19" width="62.55" height="21.38"/>
		<text transform="matrix(1 0 0 1 713.6782 905.8729)" class="st0 st27 st22">EEUU</text>
	</g>
	<g>
		<rect x="678.68" y="752.96" class="st19" width="85.54" height="21.38"/>
		<text transform="matrix(1 0 0 1 678.6732 767.9548)" class="st0 st27 st22">Argentina </text>
	</g>
	<g>
		<rect x="717.36" y="861.77" class="st19" width="61.27" height="21.38"/>
		<text transform="matrix(1 0 0 1 717.351 876.7626)" class="st0 st27 st22">Cuba</text>
	</g>
	<g>
		<rect x="718.41" y="835.77" class="st19" width="61.27" height="21.38"/>
		<text transform="matrix(1 0 0 1 718.4096 850.7673)" class="st0 st27 st22">Chile</text>
	</g>
	<g>
		<rect x="698.35" y="808.2" class="st19" width="66.95" height="21.38"/>
		<text transform="matrix(1 0 0 1 698.3461 823.1921)" class="st0 st27 st22">Canadá</text>
	</g>
	<g>
		<rect x="702.5" y="915.44" class="st19" width="74.36" height="21.38"/>
		<text transform="matrix(1 0 0 1 702.4916 930.4363)" class="st0 st27 st22">México</text>
	</g>
	<g>
		<rect x="689.73" y="942.58" class="st19" width="85.28" height="21.38"/>
		<text transform="matrix(1 0 0 1 689.725 957.577)" class="st0 st27 st22">Uruguay</text>
	</g>
	<g>
		<rect x="713.15" y="782.39" class="st19" width="82.39" height="21.38"/>
		<text transform="matrix(1 0 0 1 713.1469 797.3895)" class="st0 st27 st22">Brasil</text>
	</g>
	<g>
		<g>
			<defs>
				<path id="SVGID_1_" d="M767.65,751.4h183.67c0.51,0,0.95,0.18,1.31,0.54s0.54,0.8,0.54,1.31v19.4c0,0.51-0.18,0.95-0.54,1.31
					s-0.8,0.54-1.31,0.54H767.65V751.4z"/>
			</defs>
			<clipPath id="SVGID_00000129899311280619470320000003018578738202621360_">
				<use xlink:href="#SVGID_1_"  style="overflow:visible;"/>
			</clipPath>
			
				<rect x="767.65" y="751.4" style="clip-path:url(#SVGID_00000129899311280619470320000003018578738202621360_);fill:#EFBBA6;" width="257.66" height="205.32"/>
		</g>
	</g>
	<g>
		<g>
			<defs>
				<rect id="SVGID_00000032639337878391184760000006325312922631459219_" x="767.65" y="777.91" width="123.84" height="23.42"/>
			</defs>
			<clipPath id="SVGID_00000074401201986070953260000011066772093990876810_">
				<use xlink:href="#SVGID_00000032639337878391184760000006325312922631459219_"  style="overflow:visible;"/>
			</clipPath>
			<g style="clip-path:url(#SVGID_00000074401201986070953260000011066772093990876810_);">
				<g>
					<defs>
						<path id="SVGID_00000097478088942347610510000018004610889540317336_" d="M767.65,778.07h121.86c0.51,0,0.95,0.18,1.31,0.54
							s0.54,0.8,0.54,1.31v19.4c0,0.51-0.18,0.95-0.54,1.31s-0.8,0.54-1.31,0.54H767.65V778.07z"/>
					</defs>
					<clipPath id="SVGID_00000124853427837401165730000010577172440459013764_">
						<use xlink:href="#SVGID_00000097478088942347610510000018004610889540317336_"  style="overflow:visible;"/>
					</clipPath>
					
						<rect x="767.65" y="752.05" style="clip-path:url(#SVGID_00000124853427837401165730000010577172440459013764_);fill:#EFBBA6;" width="257.66" height="205.32"/>
				</g>
			</g>
		</g>
	</g>
	<g>
		<g>
			<defs>
				<rect id="SVGID_00000183932877242753670820000013451834391675893181_" x="767.65" y="804.79" width="113.45" height="23.22"/>
			</defs>
			<clipPath id="SVGID_00000106115592554833341750000006463561600847087247_">
				<use xlink:href="#SVGID_00000183932877242753670820000013451834391675893181_"  style="overflow:visible;"/>
			</clipPath>
			<g style="clip-path:url(#SVGID_00000106115592554833341750000006463561600847087247_);">
				<g>
					<defs>
						<path id="SVGID_00000180346944661941478810000001030090173648405686_" d="M767.65,804.89h111.56c0.51,0,0.95,0.18,1.31,0.54
							s0.54,0.8,0.54,1.31v19.4c0,0.51-0.18,0.95-0.54,1.31s-0.8,0.54-1.31,0.54H767.65V804.89z"/>
					</defs>
					<clipPath id="SVGID_00000024003096100945820590000009559647093870199686_">
						<use xlink:href="#SVGID_00000180346944661941478810000001030090173648405686_"  style="overflow:visible;"/>
					</clipPath>
					
						<rect x="767.65" y="752.85" style="clip-path:url(#SVGID_00000024003096100945820590000009559647093870199686_);fill:#EFBBA6;" width="257.66" height="205.32"/>
				</g>
			</g>
		</g>
	</g>
	<g>
		<g>
			<defs>
				<rect id="SVGID_00000150791046609106262960000002531757834814892454_" x="767.65" y="831.51" width="185.56" height="23.22"/>
			</defs>
			<clipPath id="SVGID_00000002368283060252578920000007316400374197903235_">
				<use xlink:href="#SVGID_00000150791046609106262960000002531757834814892454_"  style="overflow:visible;"/>
			</clipPath>
			<g style="clip-path:url(#SVGID_00000002368283060252578920000007316400374197903235_);">
				<g>
					<defs>
						<path id="SVGID_00000047024846798102651900000006963055087632482702_" d="M767.65,831.56h183.67c0.51,0,0.95,0.18,1.31,0.54
							s0.54,0.8,0.54,1.31v19.4c0,0.51-0.18,0.95-0.54,1.31s-0.8,0.54-1.31,0.54H767.65V831.56z"/>
					</defs>
					<clipPath id="SVGID_00000070093508773488640480000001870281639552012705_">
						<use xlink:href="#SVGID_00000047024846798102651900000006963055087632482702_"  style="overflow:visible;"/>
					</clipPath>
					
						<rect x="767.65" y="753.49" style="clip-path:url(#SVGID_00000070093508773488640480000001870281639552012705_);fill:#EFBBA6;" width="257.66" height="205.32"/>
				</g>
			</g>
		</g>
	</g>
	<g>
		<g>
			<defs>
				<rect id="SVGID_00000023964451363277316250000016956812490535923871_" x="767.33" y="858.54" width="257.66" height="23.22"/>
			</defs>
			<clipPath id="SVGID_00000122690445820129919020000009671554766025733274_">
				<use xlink:href="#SVGID_00000023964451363277316250000016956812490535923871_"  style="overflow:visible;"/>
			</clipPath>
			<g style="clip-path:url(#SVGID_00000122690445820129919020000009671554766025733274_);">
				<g>
					<defs>
						<path id="SVGID_00000104697650915366244450000014388439692964637833_" d="M767.33,858.55h255.77c0.51,0,0.95,0.18,1.31,0.54
							s0.54,0.8,0.54,1.31v19.4c0,0.51-0.18,0.95-0.54,1.31s-0.8,0.54-1.31,0.54H767.33L767.33,858.55L767.33,858.55z"/>
					</defs>
					<clipPath id="SVGID_00000147210496803879141420000003279776942747305627_">
						<use xlink:href="#SVGID_00000104697650915366244450000014388439692964637833_"  style="overflow:visible;"/>
					</clipPath>
					
						<rect x="767.33" y="754.46" style="clip-path:url(#SVGID_00000147210496803879141420000003279776942747305627_);fill:#EFBBA6;" width="257.66" height="205.32"/>
				</g>
			</g>
		</g>
	</g>
	<g>
		<g>
			<defs>
				<rect id="SVGID_00000160870183411416105910000010977873939395897989_" x="767.65" y="885.05" width="164.99" height="23.42"/>
			</defs>
			<clipPath id="SVGID_00000168110013845900024610000002719366041544679304_">
				<use xlink:href="#SVGID_00000160870183411416105910000010977873939395897989_"  style="overflow:visible;"/>
			</clipPath>
			<g style="clip-path:url(#SVGID_00000168110013845900024610000002719366041544679304_);">
				<g>
					<defs>
						<path id="SVGID_00000050625997452519689520000018058454869731141814_" d="M767.65,885.21h163.06c0.51,0,0.95,0.18,1.31,0.54
							s0.54,0.8,0.54,1.31v19.4c0,0.51-0.18,0.95-0.54,1.31s-0.8,0.54-1.31,0.54H767.65V885.21z"/>
					</defs>
					<clipPath id="SVGID_00000033361543032813049110000017621239950234980499_">
						<use xlink:href="#SVGID_00000050625997452519689520000018058454869731141814_"  style="overflow:visible;"/>
					</clipPath>
					
						<rect x="767.65" y="755.1" style="clip-path:url(#SVGID_00000033361543032813049110000017621239950234980499_);fill:#EFBBA6;" width="257.66" height="205.32"/>
				</g>
			</g>
		</g>
	</g>
	<g>
		<g>
			<defs>
				<rect id="SVGID_00000060025392967080616780000013669516866516380839_" x="767.49" y="911.93" width="103.27" height="23.22"/>
			</defs>
			<clipPath id="SVGID_00000008845793132997819190000001660930694560931720_">
				<use xlink:href="#SVGID_00000060025392967080616780000013669516866516380839_"  style="overflow:visible;"/>
			</clipPath>
			<g style="clip-path:url(#SVGID_00000008845793132997819190000001660930694560931720_);">
				<g>
					<defs>
						<path id="SVGID_00000004536370623807235820000009074865797939146649_" d="M767.49,912.04h101.26c0.51,0,0.95,0.18,1.31,0.54
							s0.54,0.8,0.54,1.31v19.4c0,0.51-0.18,0.95-0.54,1.31s-0.8,0.54-1.31,0.54H767.49V912.04z"/>
					</defs>
					<clipPath id="SVGID_00000083811500562704796370000007849294562079620234_">
						<use xlink:href="#SVGID_00000004536370623807235820000009074865797939146649_"  style="overflow:visible;"/>
					</clipPath>
					
						<rect x="767.49" y="755.9" style="clip-path:url(#SVGID_00000083811500562704796370000007849294562079620234_);fill:#EFBBA6;" width="257.66" height="205.32"/>
				</g>
			</g>
		</g>
	</g>
	<g>
		<g>
			<defs>
				<rect id="SVGID_00000051353312681561331600000001633734628243140744_" x="767.33" y="938.8" width="164.99" height="23.22"/>
			</defs>
			<clipPath id="SVGID_00000116927325873103744060000010802069232264738459_">
				<use xlink:href="#SVGID_00000051353312681561331600000001633734628243140744_"  style="overflow:visible;"/>
			</clipPath>
			<g style="clip-path:url(#SVGID_00000116927325873103744060000010802069232264738459_);">
				<g>
					<defs>
						<path id="SVGID_00000181075641503892030960000002463341089803486866_" d="M767.33,938.86h163.06c0.51,0,0.95,0.18,1.31,0.54
							s0.54,0.8,0.54,1.31v19.4c0,0.51-0.18,0.95-0.54,1.31s-0.8,0.54-1.31,0.54H767.33V938.86z"/>
					</defs>
					<clipPath id="SVGID_00000132778834205442014220000018409759006652706946_">
						<use xlink:href="#SVGID_00000181075641503892030960000002463341089803486866_"  style="overflow:visible;"/>
					</clipPath>
					
						<rect x="767.33" y="756.71" style="clip-path:url(#SVGID_00000132778834205442014220000018409759006652706946_);fill:#EFBBA6;" width="257.66" height="205.32"/>
				</g>
			</g>
		</g>
	</g>
	<g>
		<g>
			<defs>
				<rect id="SVGID_00000138566569239713966090000003301599339270331067_" x="767.65" y="751.4" width="123.68" height="23.09"/>
			</defs>
			<clipPath id="SVGID_00000036954288143789354600000007097174402742667159_">
				<use xlink:href="#SVGID_00000138566569239713966090000003301599339270331067_"  style="overflow:visible;"/>
			</clipPath>
			
				<rect x="767.65" y="751.4" style="clip-path:url(#SVGID_00000036954288143789354600000007097174402742667159_);fill:#DD6E52;" width="257.66" height="205.32"/>
		</g>
	</g>
	<g>
		<g>
			<defs>
				<rect id="SVGID_00000135673037829883098200000001542241481077502370_" x="767.65" y="778.07" width="41.24" height="23.09"/>
			</defs>
			<clipPath id="SVGID_00000155121496419140298440000012730198071140732332_">
				<use xlink:href="#SVGID_00000135673037829883098200000001542241481077502370_"  style="overflow:visible;"/>
			</clipPath>
			
				<rect x="767.65" y="752.05" style="clip-path:url(#SVGID_00000155121496419140298440000012730198071140732332_);fill:#DD6E52;" width="257.66" height="205.32"/>
		</g>
	</g>
	<g>
		<g>
			<defs>
				<rect id="SVGID_00000047021860724650364990000002444491654708198794_" x="767.65" y="804.89" width="82.48" height="23.09"/>
			</defs>
			<clipPath id="SVGID_00000013161833151484795550000007346115696632909225_">
				<use xlink:href="#SVGID_00000047021860724650364990000002444491654708198794_"  style="overflow:visible;"/>
			</clipPath>
			
				<rect x="767.65" y="752.85" style="clip-path:url(#SVGID_00000013161833151484795550000007346115696632909225_);fill:#DD6E52;" width="257.66" height="205.32"/>
		</g>
	</g>
	<g>
		<g>
			<defs>
				<rect id="SVGID_00000136386437252541497830000016385068549027750807_" x="767.65" y="831.56" width="123.68" height="23.09"/>
			</defs>
			<clipPath id="SVGID_00000183955734052345109300000011132642668370117775_">
				<use xlink:href="#SVGID_00000136386437252541497830000016385068549027750807_"  style="overflow:visible;"/>
			</clipPath>
			
				<rect x="767.65" y="753.49" style="clip-path:url(#SVGID_00000183955734052345109300000011132642668370117775_);fill:#DD6E52;" width="257.66" height="205.32"/>
		</g>
	</g>
	<g>
		<g>
			<defs>
				<rect id="SVGID_00000173882111693850614070000017777363247488529339_" x="767.33" y="858.55" width="164.88" height="23.09"/>
			</defs>
			<clipPath id="SVGID_00000055688480076718673410000016624833200018810789_">
				<use xlink:href="#SVGID_00000173882111693850614070000017777363247488529339_"  style="overflow:visible;"/>
			</clipPath>
			
				<rect x="767.33" y="754.46" style="clip-path:url(#SVGID_00000055688480076718673410000016624833200018810789_);fill:#DD6E52;" width="257.66" height="205.32"/>
		</g>
	</g>
	<g>
		<g>
			<defs>
				<rect id="SVGID_00000157270474068603906700000014660047334814331806_" x="767.65" y="885.21" width="123.68" height="23.09"/>
			</defs>
			<clipPath id="SVGID_00000036224818419265295360000015011530891999500463_">
				<use xlink:href="#SVGID_00000157270474068603906700000014660047334814331806_"  style="overflow:visible;"/>
			</clipPath>
			
				<rect x="767.65" y="755.1" style="clip-path:url(#SVGID_00000036224818419265295360000015011530891999500463_);fill:#DD6E52;" width="257.66" height="205.32"/>
		</g>
	</g>
	<g>
		<g>
			<defs>
				<rect id="SVGID_00000163751183383333622460000016492672751143168676_" x="767.49" y="912.04" width="61.86" height="23.09"/>
			</defs>
			<clipPath id="SVGID_00000155865157437051782720000015692180993165123460_">
				<use xlink:href="#SVGID_00000163751183383333622460000016492672751143168676_"  style="overflow:visible;"/>
			</clipPath>
			
				<rect x="767.49" y="755.9" style="clip-path:url(#SVGID_00000155865157437051782720000015692180993165123460_);fill:#DD6E52;" width="257.66" height="205.32"/>
		</g>
	</g>
	<g>
		<g>
			<defs>
				<rect id="SVGID_00000142898585133354993830000010267933832655225016_" x="767.33" y="938.86" width="144.3" height="23.09"/>
			</defs>
			<clipPath id="SVGID_00000109017487909235423650000003028820443197706911_">
				<use xlink:href="#SVGID_00000142898585133354993830000010267933832655225016_"  style="overflow:visible;"/>
			</clipPath>
			
				<rect x="767.33" y="756.71" style="clip-path:url(#SVGID_00000109017487909235423650000003028820443197706911_);fill:#DD6E52;" width="257.66" height="205.32"/>
		</g>
	</g>
	<g>
		<g>
			<defs>
				<rect id="SVGID_00000137847234846655598230000006466269741659537805_" x="767.65" y="751.4" width="61.84" height="23.09"/>
			</defs>
			<clipPath id="SVGID_00000088848407071020026540000001124585130379115675_">
				<use xlink:href="#SVGID_00000137847234846655598230000006466269741659537805_"  style="overflow:visible;"/>
			</clipPath>
			
				<rect x="767.65" y="751.4" style="clip-path:url(#SVGID_00000088848407071020026540000001124585130379115675_);fill:#CD181C;" width="257.66" height="205.32"/>
		</g>
	</g>
	<g>
		<g>
			<defs>
				<rect id="SVGID_00000091011522420015165000000005217527804155757992_" x="767.65" y="778.07" width="20.62" height="23.09"/>
			</defs>
			<clipPath id="SVGID_00000098925200899909404700000002359144527658612911_">
				<use xlink:href="#SVGID_00000091011522420015165000000005217527804155757992_"  style="overflow:visible;"/>
			</clipPath>
			
				<rect x="767.65" y="752.05" style="clip-path:url(#SVGID_00000098925200899909404700000002359144527658612911_);fill:#CD181C;" width="257.66" height="205.32"/>
		</g>
	</g>
	<g>
		<g>
			<defs>
				<rect id="SVGID_00000154398489511556392060000004569740058318392502_" x="767.65" y="804.89" width="41.24" height="23.09"/>
			</defs>
			<clipPath id="SVGID_00000116233115698318993290000002648705076235780261_">
				<use xlink:href="#SVGID_00000154398489511556392060000004569740058318392502_"  style="overflow:visible;"/>
			</clipPath>
			
				<rect x="767.65" y="752.85" style="clip-path:url(#SVGID_00000116233115698318993290000002648705076235780261_);fill:#CD181C;" width="257.66" height="205.32"/>
		</g>
	</g>
	<g>
		<g>
			<defs>
				<rect id="SVGID_00000055687943317401931290000000301517447152272545_" x="767.65" y="831.56" width="61.84" height="23.09"/>
			</defs>
			<clipPath id="SVGID_00000067217501749648996590000010907626085453200556_">
				<use xlink:href="#SVGID_00000055687943317401931290000000301517447152272545_"  style="overflow:visible;"/>
			</clipPath>
			
				<rect x="767.65" y="753.49" style="clip-path:url(#SVGID_00000067217501749648996590000010907626085453200556_);fill:#CD181C;" width="257.66" height="205.32"/>
		</g>
	</g>
	<g>
		<g>
			<defs>
				<rect id="SVGID_00000128466378173088956750000011943914095400092334_" x="767.33" y="858.55" width="82.44" height="23.09"/>
			</defs>
			<clipPath id="SVGID_00000017493290822874657910000006298815280265411243_">
				<use xlink:href="#SVGID_00000128466378173088956750000011943914095400092334_"  style="overflow:visible;"/>
			</clipPath>
			
				<rect x="767.33" y="754.46" style="clip-path:url(#SVGID_00000017493290822874657910000006298815280265411243_);fill:#CD181C;" width="257.66" height="205.32"/>
		</g>
	</g>
	<g>
		<g>
			<defs>
				<rect id="SVGID_00000144295546032518599240000006446516631506128047_" x="767.65" y="885.21" width="61.84" height="23.09"/>
			</defs>
			<clipPath id="SVGID_00000044148545317648748060000014089428183928437645_">
				<use xlink:href="#SVGID_00000144295546032518599240000006446516631506128047_"  style="overflow:visible;"/>
			</clipPath>
			
				<rect x="767.65" y="755.1" style="clip-path:url(#SVGID_00000044148545317648748060000014089428183928437645_);fill:#CD181C;" width="257.66" height="205.32"/>
		</g>
	</g>
	<g>
		<g>
			<defs>
				<rect id="SVGID_00000147217984498769582690000016877277288069668279_" x="767.49" y="912.04" width="30.93" height="23.09"/>
			</defs>
			<clipPath id="SVGID_00000111155346780170368930000007858675836080449206_">
				<use xlink:href="#SVGID_00000147217984498769582690000016877277288069668279_"  style="overflow:visible;"/>
			</clipPath>
			
				<rect x="767.49" y="755.9" style="clip-path:url(#SVGID_00000111155346780170368930000007858675836080449206_);fill:#CD181C;" width="257.66" height="205.32"/>
		</g>
	</g>
	<g>
		<g>
			<defs>
				<rect id="SVGID_00000070078062758405797130000004278123802985898148_" x="767.33" y="938.86" width="72.15" height="23.09"/>
			</defs>
			<clipPath id="SVGID_00000049191658367346472840000004617880502343973281_">
				<use xlink:href="#SVGID_00000070078062758405797130000004278123802985898148_"  style="overflow:visible;"/>
			</clipPath>
			
				<rect x="767.33" y="756.71" style="clip-path:url(#SVGID_00000049191658367346472840000004617880502343973281_);fill:#CD181C;" width="257.66" height="205.32"/>
		</g>
	</g>
	<rect x="821.57" y="973.92" class="st19" width="13.16" height="15.88"/>
	<text transform="matrix(1 0 0 1 821.5712 988.9208)" class="st59 st27 st22">5</text>
	<rect x="765.6" y="973.92" class="st19" width="13.16" height="22.06"/>
	<text transform="matrix(1 0 0 1 765.5971 988.9197)" class="st59 st27 st22">0</text>
	<rect x="870.16" y="974.13" class="st19" width="20.43" height="19.52"/>
	<text transform="matrix(1 0 0 1 870.1602 989.1326)" class="st59 st27 st22">10</text>
	<rect x="923.56" y="973.92" class="st19" width="21.78" height="20.87"/>
	<text transform="matrix(1 0 0 1 923.5541 988.9208)" class="st59 st27 st22">15</text>
	<rect x="973.96" y="973.92" class="st19" width="28.41" height="20.01"/>
	<text transform="matrix(1 0 0 1 973.9604 988.9208)" class="st59 st27 st22">20</text>
	<rect x="1030" y="973.92" class="st19" width="26.89" height="18.34"/>
	<text transform="matrix(1 0 0 1 1029.9906 988.9197)" class="st59 st27 st22">25</text>
</g>
<rect x="674.56" y="541.68" class="st19" width="564.53" height="85.39"/>
<text transform="matrix(1 0 0 1 678.7684 554.9769)"><tspan x="0" y="0" class="st0 st27 st60">La modalidad más común en el remo panamericano es el remo de velocidad, </tspan><tspan x="11.05" y="22.8" class="st0 st27 st60">también conocido como remo en bote largo. Solo en la de ocho se cuenta </tspan><tspan x="-0.44" y="45.6" class="st0 st27 st60">con un timonel, que dirige el bote, mientras que las otras dos competiciones </tspan><tspan x="211.9" y="68.4" class="st0 st27 st60">no tienen timonel.</tspan></text>
<rect x="677.73" y="216.8" class="st19" width="564.53" height="94.97"/>
<text transform="matrix(1 0 0 1 682.1063 227.2956)"><tspan x="0" y="0" class="st0 st27 st61">Antes de convertirse en una disciplina olímpica, ya existía como medio de transporte en culturas </tspan><tspan x="2.21" y="18" class="st0 st27 st61">tan milenarias como el Antiguo Egipto, donde se usaba para todo tipo de actividades: comercio, </tspan><tspan x="30.52" y="36" class="st0 st27 st61">traslado, guerra. Precisamente en Italia es donde se cree que surgió la primera regata </tspan><tspan x="25.54" y="54" class="st0 st27 st61">(competición náutica). De hecho, la palabra tiene su origen en «regattare» que significa </tspan><tspan x="169.75" y="72" class="st0 st27 st61">«concursar para obtener un premio».</tspan></text>
<g>
	<g>
		<g>
			<line class="st62" x1="704.68" y1="151.1" x2="1228.91" y2="151.1"/>
			<g>
				<polygon class="st7" points="1228.42,147.46 1228.42,154.75 1232.06,151.1 				"/>
			</g>
		</g>
	</g>
	<g>
		<text transform="matrix(1 0 0 1 698.7117 118.1304)"><tspan x="0" y="0" class="st0 st3 st63">JJ.OO.</tspan><tspan x="0" y="19.8" class="st0 st25 st63">Atenas, Grecia</tspan></text>
	</g>
	<g>
		<text transform="matrix(1 0 0 1 918.7439 118.1304)"><tspan x="0" y="0" class="st0 st3 st63">Panamericanos</tspan><tspan x="0" y="19.8" class="st0 st25 st63">Buenos Aires, Argentina</tspan></text>
	</g>
	<g>
		<text transform="matrix(1 0 0 1 680.9446 173.2007)" class="st14 st64 st65">1900-1908</text>
	</g>
	<text transform="matrix(1 0 0 1 811.8918 173.2007)" class="st14 st21 st65">1925</text>
	<g>
		<text transform="matrix(1 0 0 1 915.0315 173.2007)" class="st14 st64 st65">1951</text>
	</g>
	<text transform="matrix(1 0 0 1 1016.8035 173.2007)" class="st14 st21 st65">1975</text>
	<text transform="matrix(1 0 0 1 1117.1472 173.2007)" class="st14 st21 st65">2000</text>
	<g>
		<text transform="matrix(1 0 0 1 1213.4041 173.2007)" class="st14 st64 st65">2023</text>
	</g>
	<g>
		<g>
			<line class="st13" x1="720.61" y1="146.15" x2="720.61" y2="156.06"/>
			<line class="st13" x1="822.9" y1="146.15" x2="822.9" y2="156.06"/>
			<line class="st13" x1="925.19" y1="146.15" x2="925.19" y2="156.06"/>
			<line class="st13" x1="1027.48" y1="146.15" x2="1027.48" y2="156.06"/>
			<line class="st13" x1="1129.77" y1="146.15" x2="1129.77" y2="156.06"/>
		</g>
	</g>
	<ellipse class="st66" cx="927.55" cy="150.5" rx="4.59" ry="4.54"/>
	<path class="st8" d="M709.27,151.1c0,2.51-2.06,4.54-4.59,4.54c-2.54,0-4.59-2.03-4.59-4.54c0-2.51,2.06-4.54,4.59-4.54
		C707.22,146.56,709.27,148.6,709.27,151.1z"/>
</g>
</svg>
