<?xml version="1.0" encoding="utf-8"?>
<!-- Generator: Adobe Illustrator 27.5.0, SVG Export Plug-In . SVG Version: 6.00 Build 0)  -->
<svg version="1.1" id="Capa_1" xmlns="http://www.w3.org/2000/svg" xmlns:xlink="http://www.w3.org/1999/xlink" x="0px" y="0px"
	 viewBox="0 0 1920 1080" style="enable-background:new 0 0 1920 1080;" xml:space="preserve">
<style type="text/css">
	.st0{fill:#EFBBA6;stroke:#EFBBA6;stroke-width:0.25;stroke-miterlimit:10;}
	.st1{fill:#FAE9E2;}
	.st2{fill:#DDDBDC;}
	.st3{fill:#E6EBF4;}
	.st4{fill:#D23829;}
	.st5{fill:#DEDDDD;}
	.st6{fill:#6A6A6A;}
	.st7{fill:#FFFFFF;}
	.st8{fill:none;stroke:#B7B6B6;stroke-width:0.25;stroke-miterlimit:10;}
	.st9{fill:#1D1D1B;}
	.st10{fill:#FFFFFF;stroke:#1D1D1B;stroke-width:0.25;stroke-miterlimit:10;}
	.st11{fill:none;stroke:#0E0D0E;stroke-width:2;stroke-linecap:square;stroke-miterlimit:10;}
	.st12{fill:#0E0D0E;}
	.st13{fill:none;stroke:#0E0D0E;stroke-width:2;stroke-linejoin:round;}
	.st14{fill:none;stroke:#0E0D0E;stroke-linejoin:round;}
	.st15{fill:none;stroke:#D23829;stroke-width:0.25;stroke-miterlimit:10;}
	.st16{fill:#ECECEC;}
	.st17{fill:#EFBBA6;}
	.st18{fill:none;stroke:#0E0D0E;stroke-width:2;stroke-miterlimit:10;}
	.st19{fill:#1E1E1C;}
	.st20{font-family:'BarlowSemiCondensed-SemiBold';}
	.st21{font-size:36.9526px;}
	.st22{fill:none;}
	.st23{font-family:'BarlowSemiCondensed-LightItalic';}
	.st24{font-size:24.6351px;}
	.st25{font-family:'BarlowSemiCondensed-MediumItalic';}
</style>
<g id="Capa_1_00000043444630794364646430000001334823809082488985_">
	<g>
		<path class="st0" d="M937.82,499.38l13.57-0.5c0,0,1.33-28.68,9.74-36.95c8.4-8.27,9.71-8,9.71-8l4.03-5.87c0,0-3.74-7.07,0-12.81
			s12.61-5.34,17.11-2.13s5.97,9.07,6.24,14.54l1.87,3.6h-2.13c0,0-0.93,4.34-2.8,5.97s-8.48,0-8.48,0l-2.3,3.23
			c0,0,1.44,1.2,1.31,2.4c-0.13,1.2,11.21,1.73,14.94,6.67c0,0,9.6-0.8,14.01,4.4c0,0,11.36,0.63,15.15,3.18s16.2,7.89,16.2,7.89
			s7.74,1.01,10.54,4.24c2.8,3.23,2.69,8.17-1.36,8.84c-4.05,0.67-9.82,0.25-11.1-4.94s-1.28-3.89-1.28-3.89s-0.8-0.3-8.27-0.2
			c-7.47,0.1-21.44-5.51-21.44-5.51s-0.04-1.47-0.84,2.93c-0.8,4.4-4.69,33.43-4.69,33.43l-12.52,8.89h-14.81
			c0,0-0.12,7.18-5.47,6.09c-5.35-1.09-5.2-2.25-5.87-4.98s-8.67-1.67-8.67-1.67s0.79,6.74-4.94,7.37s-6.93-3.45-6.66-8.21s0,0,0,0
			l1.19-7.49c0,0-6.18,0.54-11.84,1.04"/>
	</g>
	<g>
		<path class="st1" d="M965.95,522.73c0,0-18.34,1.6-20.77,1.83c-2.43,0.23-12.7-0.84-12.7-0.84l-12.3,8.49l-5.27-0.59
			c0,0,2.02,6.81-4.35,6.81s-5.55-2.03-5.76-5.7c0,0-4.21,0.41-3.55-2.76c0.67-3.17,4.27-2.71,4.27-2.71l0.4-5.77l3.87-0.68
			c0,0-7.61-7.11-8.61-8.1s-11.13-13.13-12.47-14.73s-4.4,0.93-13.74,0.4c-9.34-0.53-2.08-10.09-2.11-12.31
			c-0.03-2.23,3.47-10.76,8.66-15.17c0,0,0.25-0.27-1.35-2.67s0.27-7.75,5.07-10.81s7.07-8.4,6.67-10.66
			c-0.4-2.27-3.33-6.68-0.4-14.88s19.74-1.26,20.94,2.87s1.59,9.33,1.59,9.33s1,2.65,1.79,3.44l-2.72,0.93c0,0-0.07,5.12-1.43,6.32
			s-6.88,0.7-6.88,0.7v4.17c0,0,10.9,10.35,9.18,21h8.96l21.07,21.93l23.55-0.86"/>
		<path class="st1" d="M912.9,442.5c0,0-0.56,1.86,0,2.99s1.53,1.94,1.53,1.94l-2.82,0.81c0,0,0.24,5.25-1.53,5.81
			c-1.78,0.56-8.71-0.4-12.91-3.87c-4.2-3.47-6.54-8.39-6.29-11.94c0.24-3.55,3.95-9.52,8.55-9.44s10.33,2.66,11.78,6.21
			C912.66,438.55,913.15,440.64,912.9,442.5z"/>
		<path class="st1" d="M894.26,449.49c0,0-1.05-1.98-1.45-1.34c-0.4,0.65-0.4,3.47-1.29,4.44s-1.37,2.18-1.37,2.18s6.46-1.85,8.47,0
			c2.02,1.85,5,3.55,5,3.55l0.4-3.55C904.03,454.77,896.76,451.79,894.26,449.49z"/>
		<path class="st1" d="M892.3,458.32c0,0-0.11-6.31,8.81,0s11.83,19.12,11.49,20.92c0,0-2.79,1.12-12.61,1.79
			s-11.05,2.46-11.05,2.46s7.14-10.27,7.59-16.07c0.45-5.8-0.78-6.56-1.79-7.63C893.75,458.71,892.3,458.32,892.3,458.32z"/>
		<path class="st1" d="M881.53,467.86c0,0-2.62-8.82,5.52-9.54s8.81,7.26,7.48,11.19s-8.59,13.2-8.59,13.2l-12.16,4.28
			c0,0,0.79-10.98,8.48-16.45L881.53,467.86z"/>
		<path class="st1" d="M872.43,489.84c0,0,0.22-5.45,33.59-7.13l6.61-0.45c0,0,5.52-0.89,6.82,0s0,1.9,0,1.9s-3.63-1.36-5.01,0.6
			c-1.39,1.97-1.39,1.97-1.39,1.97s-1.79-1.96-3.12-0.87c-1.34,1.09-18.08,8.27-18.08,8.27s1.66,0.08-7.43,2.2
			c-9.09,2.12-9.88,1.61-11.43,0C869.76,492.95,872.43,489.84,872.43,489.84z"/>
		<path class="st1" d="M920.03,494.11l-0.58,6.14c0,0-5.84-2.93-11.42-1.37c-5.58,1.56-8.37,9.07-8.37,9.07s-8.92-6.79-9.51-9.85
			s20.67-12.07,21.79-11.11C913.05,487.94,915.58,492.7,920.03,494.11z"/>
		<path class="st1" d="M920.03,501.67c0,0-7.2-3.12-10.88-1.9c-3.68,1.23-6.81,6.2-7.36,8.18c-0.56,1.98,0,4.75,0,4.75l10.15,8.1
			h12.87c0,0-3.75-3.06-4.63-9.09C919.3,505.69,920.03,501.67,920.03,501.67z"/>
	</g>
	<path class="st1" d="M954.57,516.22c0,0-4.64,1.23-5.89,2.76c-1.26,1.53-0.89,2.43,0.7,2.62s11.13-0.01,11.6-0.29
		c0.47-0.27,1.5-0.46,1.5-0.46L954.57,516.22z"/>
	<path class="st1" d="M912.34,441.08c0,0-0.57,1.86,0,2.99s1.53,1.94,1.53,1.94l-2.83,0.81c0,0,0.24,5.25-1.53,5.81
		s-8.71-0.4-12.91-3.87c-4.2-3.47-6.53-8.39-6.29-11.94c0.24-3.55,3.95-9.52,8.55-9.44s10.33,2.66,11.78,6.21
		C912.09,437.13,912.58,439.23,912.34,441.08z"/>
	<path class="st1" d="M893.7,448.07c0,0-1.05-1.98-1.45-1.34c-0.4,0.65-0.4,3.47-1.29,4.44c-0.89,0.97-1.37,2.18-1.37,2.18
		s6.45-1.85,8.47,0c2.02,1.85,5,3.55,5,3.55l0.4-3.55C903.46,453.35,896.2,450.38,893.7,448.07z"/>
	<path class="st1" d="M891.73,456.9c0,0-0.11-6.31,8.81,0c8.93,6.31,11.83,19.12,11.49,20.92c0,0-2.79,1.12-12.61,1.79
		s-11.05,2.46-11.05,2.46s7.14-10.27,7.59-16.07c0.45-5.8-0.78-6.56-1.79-7.63C893.18,457.29,891.73,456.9,891.73,456.9z"/>
	<path class="st1" d="M880.96,466.44c0,0-2.63-8.82,5.52-9.54s8.81,7.26,7.48,11.19c-1.34,3.93-8.59,13.2-8.59,13.2l-12.16,4.28
		c0,0,0.79-10.98,8.48-16.45L880.96,466.44z"/>
	<path class="st1" d="M871.87,488.42c0,0,0.23-5.45,33.59-7.13l6.61-0.45c0,0,5.52-0.89,6.82,0s0,1.9,0,1.9s-3.62-1.36-5.01,0.6
		c-1.39,1.97-1.39,1.97-1.39,1.97s-1.78-1.96-3.12-0.87c-1.34,1.09-18.08,8.27-18.08,8.27s1.66,0.08-7.43,2.2
		c-9.08,2.12-9.88,1.61-11.43,0C869.19,491.53,871.87,488.42,871.87,488.42z"/>
	<path class="st1" d="M919.46,492.7l-0.58,6.13c0,0-5.84-2.93-11.42-1.37c-5.58,1.56-8.37,9.07-8.37,9.07s-8.92-6.79-9.51-9.85
		c-0.6-3.06,20.67-12.07,21.78-11.11C912.48,486.53,915.01,491.29,919.46,492.7z"/>
	<path class="st1" d="M919.46,500.25c0,0-7.2-3.12-10.88-1.9c-3.68,1.23-6.81,6.2-7.36,8.18c-0.56,1.98,0,4.75,0,4.75l10.15,8.1
		h12.87c0,0-3.75-3.06-4.63-9.09C918.73,504.27,919.46,500.25,919.46,500.25z"/>
	<polygon class="st2" points="920.29,521.31 920.29,525.83 906.57,525.83 907.13,520.78 	"/>
	<path class="st3" d="M913.89,529.52c0,0-0.23-1.43-3.74-1.3s-4.26,3.49-4.26,3.49h-3.8c0,0-3.43-3.65,0.53-4.76h12.62v2.38
		L913.89,529.52z"/>
	<path class="st4" d="M1037.39,516c0,0,8.69-5.03,7.93-1.83c-0.76,3.2-20.89,23.78-24.7,23.63s-2.68-4.11-3.4-4.88
		c-0.72-0.76-4.23-4.28-6.06-5.04c-1.83-0.76-17.54-10.06-21.81-17.84s-3.81-9.15-5.64-8.08s-20.98,12.33-27.64,13.18
		c-6.66,0.85-9.56,4.39-9.11,4.91c0.46,0.52,1.68,1.54,1.68,1.54l-0.61,3.7c0,0,4.59,4.4,4.12,3.5c-0.46-0.91-1.29,6.2-1.29,6.2
		l-13.66,0.67v-2.44h-7.33c0,0,0.75,3.68-4.04,3.36c-4.79-0.31-3.27-3.67-3.27-3.67h-2.97v-2.14c0,0-2.68,0.44-2.53-1.99
		c0.15-2.43,0.15-2.43,0.15-2.43l4.27,0.61l0.3-7.25h5.03c0,0-4.12-3.42-5.49-17.15c-1.37-13.72-0.15-27.14,3.96-36.29
		c4.12-9.15,7.02-9.15,9.45-12.96c2.44-3.81,2.59-8.23,2.59-8.23s-1.98-10.98,4.57-14.94c6.56-3.96,18.15,0.61,18.91,7.01
		c0.76,6.4-0.46,7.47,0.92,9.61c1.37,2.14,1.83,3.2,1.83,3.2h-3.81l-1.37,5.95c0,0-4.1,0.31-6.25,0c-2.14-0.3-2.9-0.46-2.9-0.46
		l-0.46,5.18c0,0,1.38,1.07,3.36,3.35c1.98,2.29,15.9,5.34,16.25,7.62c0.36,2.29,24.6,2.98,28.88,6.56
		c4.27,3.57,11.74,6.84,15.4,7.38c3.66,0.54,7.62,4.11,8.08,7.13c0.46,3.02-2.91,9.54-8.09,6.64c-5.17-2.9-2.28-7.81-2.28-7.81
		l-13.42-5.27c0,0-14.49,0.89-18.3-0.7c-3.81-1.59-11.28-6.62-11.28-6.62l-14.49-1.83c0,0-2.29,8.99-5.95,13.34
		c-3.66,4.35-5.12,7.71-2.79,7.55c2.33-0.15,37.71-13.54,44.27-10.28s19.97,24.46,23.33,28.27c3.36,3.81,3.05,6.77,9.91,5.6
		C1028.54,520.42,1037.39,516,1037.39,516z"/>
	<g>
		<path class="st5" d="M897.69,540.11v11.34h149.45v-11.34H897.69z M1028.65,544.54c-0.02-2.58,2.63-4.22,4.93-3.07
			c1.09,0.54,1.81,1.71,1.82,2.92c0.02,2.58-2.63,4.23-4.93,3.07C1029.39,546.92,1028.66,545.76,1028.65,544.54z M1010.04,544.54
			c-0.02-2.58,2.63-4.22,4.93-3.07c1.08,0.54,1.8,1.71,1.81,2.92c0.02,2.58-2.62,4.23-4.93,3.07
			C1010.77,546.92,1010.05,545.76,1010.04,544.54z M991.42,544.54c-0.02-2.58,2.63-4.23,4.93-3.07c1.09,0.54,1.81,1.71,1.82,2.92
			c0.02,2.58-2.63,4.23-4.93,3.07C992.15,546.92,991.43,545.76,991.42,544.54z M973.21,544.54c-0.02-2.58,2.63-4.23,4.93-3.07
			c1.08,0.54,1.8,1.71,1.81,2.92c0.02,2.58-2.62,4.23-4.93,3.07C973.94,546.92,973.21,545.76,973.21,544.54z M953.63,544.54
			c-0.02-2.58,2.63-4.23,4.93-3.07c1.08,0.54,1.8,1.71,1.82,2.92c0.02,2.58-2.63,4.23-4.93,3.07
			C954.36,546.92,953.63,545.76,953.63,544.54z M936.15,544.08c-0.02-2.58,2.63-4.22,4.93-3.07c1.08,0.54,1.8,1.71,1.81,2.92
			c0.02,2.58-2.63,4.23-4.93,3.07C936.88,546.45,936.16,545.29,936.15,544.08z M917.55,544.54c-0.02-2.58,2.62-4.23,4.93-3.07
			c1.09,0.54,1.81,1.71,1.82,2.92c0.02,2.58-2.63,4.23-4.93,3.07C918.28,546.92,917.56,545.76,917.55,544.54z"/>
		<g>
			<path class="st5" d="M1047.14,539.62l-149.45-0.08V537h12.3c0,0,0.67,1.23,3.37,1.31s3.68-1.31,3.68-1.31h9.59
				c0,0-0.54,1.39,2.38,1.31s2.84-0.9,2.92-1.31h83.93c0,0,0.74,1.88,4.66,1.72c3.92-0.16,5.15-1.72,5.15-1.72h21.46v2.62H1047.14z"
				/>
		</g>
	</g>
	<g>
		<path class="st6" d="M1037.99,551.75c0.65,0,1.34-0.06,2.08-0.2c3.15-0.6,6.34-1.76,9.15-2.79c3.01-1.1,5.61-2.05,7.37-2.05
			c1.43,0,2.93,0.67,4.66,1.45c2.35,1.06,5.27,2.37,9.36,2.63c7.22,0.48,10.46-2.24,10.59-2.36l-0.93-1.07
			c-0.03,0.02-2.97,2.45-9.58,2.02c-3.83-0.25-6.51-1.45-8.87-2.51c-1.88-0.85-3.5-1.57-5.24-1.57c-2.01,0-4.72,0.99-7.86,2.14
			c-2.76,1.01-5.89,2.15-8.93,2.73c-3.61,0.68-5.77-0.68-8.07-2.12c-1.56-0.98-3.18-1.99-5.22-2.28c-2.92-0.41-5.19,0.59-7.82,1.75
			c-1.93,0.85-4.11,1.82-6.99,2.41c-4.24,0.89-7.11-0.99-9.64-2.65c-1.34-0.87-2.6-1.7-3.88-1.96c-3.08-0.61-9.07,1.58-13.88,3.34
			c-0.84,0.31-1.64,0.6-2.37,0.86c-4.55,1.61-10.73-2.11-14.83-4.57c-3.03-1.82-5.61-0.57-8.87,1.02c-2.19,1.06-4.67,2.27-7.97,2.98
			c-5.14,1.11-6.81,0.31-9.14-0.8c-1.37-0.66-2.93-1.4-5.43-1.9c-3.91-0.78-7.03,0.21-10.06,1.17c-2.36,0.75-4.79,1.52-7.7,1.52
			c-5.16,0-5.61-0.36-6.91-1.45c-0.39-0.32-0.84-0.69-1.46-1.13c-2.63-1.83-6.71-0.92-11.43,0.13c-1.02,0.23-2.07,0.46-3.13,0.67
			c-1.29,0.26-2.43,0.56-3.53,0.85c-3.78,1.01-6.51,1.73-11.05-0.78c-4.97-2.75-5.62-3.35-5.68-3.4l-0.49,0.48l-0.57-0.56l-0.2,0.6
			c0.06,0.39,0.1,0.72,6.26,4.12c5.03,2.78,8.15,1.95,12.1,0.91c1.08-0.29,2.19-0.58,3.44-0.83c1.07-0.21,2.13-0.45,3.16-0.67
			c4.4-0.98,8.2-1.82,10.32-0.35c0.58,0.41,1,0.75,1.37,1.05c1.63,1.35,2.4,1.77,7.82,1.77c3.13,0,5.67-0.81,8.13-1.59
			c2.98-0.94,5.8-1.84,9.35-1.13c2.32,0.47,3.8,1.17,5.09,1.79c2.48,1.18,4.44,2.12,10.04,0.91c3.47-0.75,6.15-2.05,8.29-3.09
			c3.1-1.51,5.15-2.5,7.53-1.08c4.32,2.59,10.86,6.52,16.03,4.69c0.74-0.26,1.54-0.55,2.39-0.87c4.41-1.61,10.43-3.83,13.12-3.28
			c1.02,0.2,2.11,0.92,3.38,1.75c2.63,1.72,5.89,3.87,10.71,2.85c3.01-0.63,5.27-1.63,7.26-2.5c2.53-1.12,4.53-2,7.05-1.64
			c1.75,0.25,3.17,1.14,4.67,2.08C1032.89,550.43,1034.99,551.75,1037.99,551.75z"/>
	</g>
	<path class="st4" d="M960.3,446.34l1.94,2.73h-3.16c0,0,0,6.04-2.45,6.83c-2.44,0.79-15.81-3.66-18.26-11.79
		c-2.44-8.12,3.59-13.87,9.13-13.66c5.53,0.22,10.92,4.46,11.64,7.76C959.87,441.53,960.3,446.34,960.3,446.34z"/>
	<path class="st4" d="M949.02,455.99l-2.59,2.64c0,0-3.31-4.46-8.27-3.38s-5.53,1.61-5.53,1.61l6.32-8.79
		C938.95,448.07,945.71,455.01,949.02,455.99z"/>
	<path class="st4" d="M961.07,468.97c0,0-5.64-8.64-12.49-6.74c-6.84,1.9-6.84,7.17,0.75,10.97s11.74,3.71,11.74,3.71
		s12.28,5.79,16.69,4.23c4.41-1.55,4.59-5.79,4.59-5.79L961.07,468.97z"/>
	<path class="st4" d="M1005.17,484.26l0.26,4.75h3.13c0,0,0.97,2.73,1.62,2.87c0.65,0.14,3.55-4.07,5.53-2.71
		c1.98,1.36,4.38,3.55,3.5,5.38c-0.89,1.83-3.63,4.29-3.63,4.29s5.15-1.52,5.2-4.08s-2.3-5.22-4.59-6.37
		c-2.3-1.15-5.12-3.28-6.42-2.82C1008.46,486.04,1005.17,484.26,1005.17,484.26z"/>
	<path class="st4" d="M943.44,499.44l19.46,13.53c0,0,18.57-8.42,20.78-10.97c0,0,1.86-1.52,2.76-0.07s3.38,6.97,3.38,6.97
		l0.82,1.66l9.32-8.56c0,0-8.97-11.85-10-12.66c-1.03-0.8-21.81,2.51-25.26,3.54C961.25,493.92,943.44,499.44,943.44,499.44z"/>
	<path class="st4" d="M934.13,458.36c0,0-1.99-0.83-4.23,1.57c-2.23,2.39-7.1,15.08-7.74,16.44c-0.64,1.36-0.96,7.5-0.96,7.5
		l20.99,14.96c0,0,3.43-9.54,5.19-11.53c1.75-2,5.3-10.21,4.49-10.85c-0.82-0.64-1.77-1.99-4.97-2.55
		c-3.19-0.56-9.33-1.84-10.93-3.11c-1.6-1.28-3.09-3.35-3.34-4.63s-0.43-4.71,0.26-5.75C933.58,459.37,935.01,458.5,934.13,458.36z"
		/>
	<path class="st4" d="M926.47,518.98l16.52,0.4c4.31-0.88,10.13-4.47,10.13-4.47l-31.92-21.23
		C921.21,493.68,919.37,512.41,926.47,518.98z"/>
	<g>
		<path class="st5" d="M923.96,525.83h20.15c1.24,0,2.26-1.02,2.26-2.26l0,0c0-1.24-1.02-2.26-2.26-2.26h-20.15
			c-1.24,0-2.26,1.02-2.26,2.26l0,0C921.7,524.81,922.72,525.83,923.96,525.83z"/>
		<g>
			<path class="st5" d="M937.37,532.41c0,2.14,1.62,3.87,3.62,3.87s3.62-1.73,3.62-3.87s-1.62-3.87-3.62-3.87
				S937.37,530.28,937.37,532.41z M938.75,532.45c0-1.24,1.01-2.25,2.25-2.25s2.25,1.01,2.25,2.25s-1.01,2.25-2.25,2.25
				C939.76,534.69,938.75,533.69,938.75,532.45z"/>
			<path class="st5" d="M941.03,531.3c0.65,0,1.17,0.52,1.17,1.17s-0.52,1.17-1.17,1.17c-0.64,0-1.17-0.52-1.17-1.17
				S940.38,531.3,941.03,531.3z"/>
		</g>
		<g>
			<path class="st5" d="M922.86,532.41c0,2.14,1.62,3.87,3.61,3.87c2,0,3.62-1.73,3.62-3.87s-1.62-3.87-3.62-3.87
				S922.86,530.28,922.86,532.41z M924.24,532.45c0-1.24,1.01-2.25,2.25-2.25s2.25,1.01,2.25,2.25s-1.01,2.25-2.25,2.25
				C925.24,534.69,924.24,533.69,924.24,532.45z"/>
			<path class="st5" d="M926.51,531.3c0.64,0,1.17,0.52,1.17,1.17s-0.52,1.17-1.17,1.17c-0.65,0-1.17-0.52-1.17-1.17
				S925.86,531.3,926.51,531.3z"/>
		</g>
		<rect x="930.94" y="531.7" class="st5" width="5.58" height="1.51"/>
		<path class="st5" d="M950.03,530.2h-5.23c0,0-0.55-2.51-3.52-2.56c-2.96-0.05-3.92,2.56-3.92,2.56h-7.03c0,0-0.5-2.61-3.87-2.56
			c-3.36,0.05-3.61,2.56-3.61,2.56h-3.97v-2.56h3.21v-1.4h25.32v1.46h2.61L950.03,530.2L950.03,530.2z"/>
	</g>
	<path class="st4" d="M1011.26,518.33l-9,2.48c0,0,12.05,6.73,13.39,9.35c1.35,2.62,0.23,3.61,1.85,5.32
		c1.62,1.7,3.82,2.2,5.45,0.99c1.63-1.21,21.75-20.05,21.26-20.9c-0.5-0.85-3.26-1.13-7.16,1.2c-3.9,2.34-11.27,5.67-15.94,5.88
		C1016.43,522.87,1011.26,518.33,1011.26,518.33z"/>
	<g>
		<g>
			<path class="st2" d="M906.61,532.78c0,2.07,1.57,3.75,3.51,3.75c1.93,0,3.5-1.68,3.5-3.75s-1.57-3.75-3.5-3.75
				C908.17,529.02,906.61,530.7,906.61,532.78z M907.94,532.81c0-1.2,0.98-2.18,2.18-2.18s2.18,0.98,2.18,2.18s-0.97,2.18-2.18,2.18
				C908.92,534.99,907.94,534.01,907.94,532.81z"/>
			<circle class="st2" cx="910.15" cy="532.83" r="1.13"/>
		</g>
	</g>
	<path class="st7" d="M1010.04,503.8c0,0-1.82,0.63-2.47,2.41c-0.65,1.78-0.29,3.18,0,3.18s2.53,0.37,2.81,0
		c0.28-0.37,1.87-1.78,1.87-1.78l-1.09-1.59L1010.04,503.8l-2.47,2.41L1010.04,503.8l-2.47,2.41"/>
	<g>
		<path class="st8" d="M961.54,588.5c-4.54-1.39-2.91-18.76-2.54-22.23l0.07-0.65h2.25c0.6,0,1.21,0,1.65,0.45
			c0.54,0.54,0.53,1.33,0.52,3.44v0.9c0,3.48,1.4,4.89,3.65,6.02c1.92,0.97,1.16,4.97,0.17,7.42c-1.22,3.04-3.03,4.79-4.89,4.79
			C962.13,588.64,961.83,588.59,961.54,588.5z"/>
	</g>
	<g>
		<path class="st8" d="M1004.81,590.09c-4.69-0.65-12.25-16.02-13.07-20.12c-0.39-1.95-0.2-3.39,0.55-4.26
			c0.43-0.5,0.94-0.69,1.31-0.76c0.32-0.5,1.03-1.35,2.22-1.76c1.35-0.47,2.91-0.25,4.64,0.64c4.52,2.33,10.29,10.09,9.95,13.39
			c-0.03,0.26-0.06,0.59-0.09,0.97c-0.28,3.26-0.81,9.33-3.27,11.29c-0.55,0.44-1.16,0.66-1.82,0.66
			C1005.1,590.12,1004.96,590.11,1004.81,590.09z"/>
	</g>
	<g>
		<path class="st8" d="M885.65,581.44c-2.9-2.79-5.25-11.02-4.66-14.49c0.78-4.56,8.79-9.65,13.83-9.8c4.76-0.14,16.15,0,16.27,0
			l0.52,0.01l0.16,0.49c0.08,0.24,1.95,5.93-0.75,8.5c-2.17,2.06-19.47,15.47-22.94,16.21c-0.14,0.03-0.29,0.05-0.43,0.05
			C886.99,582.4,886.32,582.08,885.65,581.44z"/>
	</g>
	<g>
		<g>
			<path class="st7" d="M979.36,530.57l44.93,29.95c0,0-0.54,2.41,3.8,6.56c4.33,4.14,19.1,15.93,22.62,14.44s7.04-12.59,4.6-15.17
				c-2.44-2.58-7.45-8.54-12.33-8.41c-4.87,0.14-9.89,0.14-9.89,0.14l-2.98,0.27l-47.75-30.46L979.36,530.57z"/>
			<path class="st9" d="M1027.58,567.6c-3.5-3.35-4.01-5.7-4.04-6.71l-45.37-30.24l4.13-3.68l48,30.63l2.8-0.25
				c0.05,0,5.06,0,9.87-0.14c4.74-0.11,9.38,4.86,12.14,7.85l0.73,0.78c1.44,1.53,1.02,4.81,0.64,6.63
				c-0.83,3.93-3.03,8.67-5.49,9.71c-0.27,0.11-0.59,0.17-0.95,0.17C1044.53,582.35,1029.56,569.49,1027.58,567.6z M1043,558.67
				c-4.83,0.13-9.85,0.14-9.84,0.13l-3.23,0.29l-47.49-30.3l-1.9,1.69l44.15,29.43l0.39,0.28l-0.08,0.46c0,0.02-0.31,2.17,3.58,5.89
				c5.69,5.44,19.15,15.43,21.83,14.3c1.7-0.72,3.78-4.61,4.63-8.67c0.53-2.54,0.43-4.59-0.27-5.33l-0.74-0.79
				c-2.4-2.59-6.83-7.38-10.89-7.38C1043.1,558.67,1043.05,558.67,1043,558.67z"/>
		</g>
		<path class="st10" d="M974.01,522.57l-54.4-38.12c0,0-3.18-2.52-4.82,0c-1.65,2.52,1.43,5.04,7.35,8.55
			c5.92,3.51,47.71,31.26,47.71,31.26L974.01,522.57z"/>
	</g>
	<g>
		<g>
			<path class="st7" d="M891.17,546.3c0,0-14.97-2.68-21.46,0c-6.49,2.68-19.48,7.91-19.06,10.02c0.42,2.12,3.25,10.31,6.78,11.86
				s35.63-12.38,36.43-14.09C894.65,552.38,891.17,546.3,891.17,546.3z"/>
			<path class="st9" d="M857.14,568.85c-3.88-1.71-6.77-10.24-7.2-12.38c-0.4-1.99,3.91-4.42,18.42-10.39l1.08-0.44
				c6.61-2.73,21.25-0.15,21.87-0.04l0.34,0.06l0.17,0.3c0.86,1.5,3.59,6.55,2.71,8.45c-0.82,1.77-17.41,8.57-17.57,8.64
				c-6.92,2.83-15.38,5.98-18.77,5.98C857.74,569.02,857.39,568.97,857.14,568.85z M869.99,546.98l-1.08,0.44
				c-4.69,1.93-17.16,7.07-17.55,8.76c0.45,2.26,3.22,9.95,6.36,11.34c1.04,0.47,7.08-1.11,18.26-5.66
				c9.79-3.98,16.65-7.43,17.21-8.07c0.37-0.79-0.97-4.1-2.48-6.82C888.48,546.59,875.69,544.62,869.99,546.98z"/>
		</g>
		<g>
			<path class="st7" d="M980.1,521.6c0,0-96.26,27.39-97.75,29.93s-0.36,3.74,2.18,3.14s89.7-27.69,89.7-27.69L980.1,521.6z"/>
			<path class="st9" d="M881.34,554.69c-0.43-0.58-0.71-1.66,0.38-3.53c1.52-2.59,75.53-23.82,98.17-30.26l2.95-0.84l-8.13,7.46
				l-0.27,0.16c-3.56,1.11-87.21,27.1-89.75,27.7c-0.51,0.12-0.95,0.17-1.33,0.17C882.19,555.55,881.6,555.05,881.34,554.69z
				 M977.34,523.14c-37.78,10.78-92.09,26.77-94.36,28.76c-0.62,1.06-0.64,1.7-0.47,1.93c0.17,0.22,0.75,0.39,1.86,0.13
				c2.44-0.57,85.32-26.33,89.49-27.63L977.34,523.14z"/>
		</g>
		<path class="st10" d="M994.51,516.54c0,0,69.82-24.89,73.19-23.81c3.36,1.08,4.31,3.5,0.94,6.46c-3.36,2.96-82.2,25.08-82.2,25.08
			L994.51,516.54z"/>
	</g>
	<g>
		<g>
			<line class="st11" x1="994.03" y1="488.37" x2="950.8" y2="488.37"/>
			<g>
				<polygon class="st12" points="951.67,485.38 946.49,488.37 951.67,491.36 				"/>
			</g>
		</g>
	</g>
	<g>
		<g>
			<path class="st13" d="M849.9,587.05c8.79,6.54,37.38,22.24,109.26,22.24c86.21,0,108.08-25.05,108.08-25.05"/>
			<g>
				<polygon class="st12" points="848.7,589.86 846.64,584.24 852.54,585.27 				"/>
			</g>
		</g>
	</g>
	<g>
		<g>
			<polygon class="st9" points="991.9,863.95 992.17,862.52 944.13,853.58 946.19,855.44 			"/>
		</g>
		<path class="st4" d="M955.47,864.88c0,0,0.88,1.59,15.61,2.67c11.97,0.87,28.14-9.65,29.78-8.22c1.65,1.44-19.1,25.06-22.7,25.06
			c-3.6,0-3.6-3.29-4.62-5.55c-1.03-2.26-2.88-5.34-9.04-3.7s-16.23,1.44-26.7-2.05c-10.48-3.49-9.86-5.13-13.56-5.34
			c-3.7-0.2-2.26-0.82-7.19,0.21s-18.08-0.62-21.16-0.62c-3.08,0-6.37,0-6.37,0v4.44c0,0,5.14-0.12,4.11,3.16
			c-1.03,3.29-4.11,2.67-4.11,2.67v2.26h-2.08c0,0,0.14,2.9-3.92,3.13c-4.05,0.23-3.87-3.04-3.87-3.04h-8.2c0,0,0,2.95-4.01,2.99
			c-4.01,0.05-3.78-3.13-3.78-3.13h-2.39v-2.99c0,0-3.09,0.23-3.04-2.35c0.05-2.58,1.11-2.49,3.73-2.4v-6.22h5.34
			c0,0-8.2-8.44-10.79-10.43c-2.59-1.99-11.14-11.14-11.14-11.14s-9.55,0.9-14.62-0.4c-5.07-1.29-4.27-4.18-3.28-9.45
			c1-5.27,3.48-12.13,8.25-18.2c0,0-2.39-14.32,7.66-15.91l5.07-7.46c0,0-2.39-2.49-2.39-8.65c0-6.17,1.49-12.43,12.73-12.53
			c11.24-0.1,12.63,14.92,11.74,19.79c-0.9,4.87-3.18,8.06-4.18,8.35c-1,0.3-4.47-0.2-4.47-0.2l-1.2,3.58c0,0,9.75,8.75,10.34,20.68
			c0,0,9.59,0.43,10.79,4.81c1.2,4.38,0.33,5.8-0.66,6.02c-0.99,0.22-1.86-2.52-2.63-3.5c-0.77-0.99-4.92-2.41-6.56-0.33
			c-1.64,2.08,9.63,12.91,16.52,14.77c6.89,1.86,28.99,4.05,28.99,4.05S950.11,859.35,955.47,864.88z"/>
		<path class="st4" d="M850.47,788.61c0,0-5.56-6.86,0.79-13.02c6.36-6.16,16-0.3,17.49,2.98c1.49,3.28,1.39,10.04,1.39,10.04
			s1.89,2.98,2.38,2.98c0.5,0-2.09,0.5-2.09,0.5s-1.19,5.86-3.77,6.56C864.09,799.34,855.54,796.46,850.47,788.61z"/>
		<path class="st4" d="M849.83,792.59c0,0-2.65,4.7-2.95,5.8c-0.3,1.09,5.93-0.25,8.22,0.94s5.56,2.41,5.56,2.41l0.7-2.38
			C861.36,799.34,855.1,798.05,849.83,792.59z"/>
		<path class="st4" d="M837.76,816.4c0,0-3.02-12.55,6.79-13.87s9.15,12.45,4.24,17.64c-4.9,5.19-7.26,7.83-7.26,7.83
			s-10.66,5.19-12.93,8.02c-2.26,2.83,1.32-2.92,2.55-6.41C832.39,826.12,832.76,819.14,837.76,816.4z"/>
		<path class="st4" d="M849.74,801.73c0,0-3.12-2.12,3.11-1.37c6.24,0.75,12.55,9.34,14.81,13.59s2.26,10.94,1.51,11.04
			c-0.75,0.09-16.51,0.57-19.15,1.79c-2.64,1.23-5.19,1.89-5.28,1.13c-0.09-0.75,9.06-6.98,8.78-14.91
			C853.24,805.08,849.74,801.73,849.74,801.73z"/>
		<path class="st4" d="M831.43,842.57c0,0-4.06-4.56,1.52-8.11s18.65-5.05,25.24-6.23c6.59-1.17,16.83-3.3,19.67-1.78
			c2.84,1.52,4.66,4.36,3.75,5.78c-0.91,1.42-1.42,1.01-1.73,0.61c-0.3-0.41-2.53-4.95-5.67-4.61c-3.14,0.35-0.71,2.17-1.72,3.19
			s-4.66-1.83-5.37-1.72c-0.71,0.1-16.93,9.22-21.59,11.15C840.86,842.77,835.18,844.19,831.43,842.57z"/>
		<path class="st4" d="M845.84,842.24c0,0,13.17-8.39,21.5-8.81c8.32-0.42,10.82,0.83,12.21,2.08s-0.21,3.19-0.69,3.19
			s-4.3-2.43-5.76-2.43s-1.59,0.63-1.32,1.04c0.28,0.42,2.91-0.01,2.08,0.48c-0.83,0.49-5.27,0.56-8.32,0.56s-5.82,1.46-8.04,2.15
			s-5.27,0.62-8.46,1.73C845.84,843.35,845.84,842.24,845.84,842.24z"/>
		<path class="st4" d="M847.99,844.18c0,0,7.56,8.95,8.39,8.53s-0.14-8.95,6.59-9.44c6.73-0.48,15.6,1.25,17.62,1.11
			c2.01-0.14-4.23-6.73-4.99-6.35s-9.85-0.1-15.19,2.26C855.06,842.66,847.99,844.18,847.99,844.18z"/>
		<path class="st4" d="M877.05,845.92c0,0-7.22-2.95-12.57-1.3c-5.34,1.65-6.56,6.95-6.13,9.74c0.44,2.78,7.42,10.94,9.8,11.2
			c1.3,0.14,12.03-0.1,21.87,0.27c8.13,0.3,15.58,1.23,17.19,1.31c3.56,0.17,13.73-2.61,17.21-2c3.48,0.61,8.08,2.52,11.65,5.13
			s8.09,3.74,19.04,4c10.95,0.26,16-0.44,17.3,0.61c1.31,1.04,1.57,3.39,2.09,5.04c0.52,1.65,0.52,2.35,2.87,2.43
			c2.35,0.09,22.34-19.39,22.6-20.69c0.26-1.3-4.61-0.26-10.26,3.39s-11.91,3.39-18,3.56c-6.08,0.17-17.91-3.2-23.21-5.38
			c-5.3-2.18-22.51-10.01-24.77-10.27s-17.21-2.52-22.08-3.22c-4.87-0.69-9.48-2-12.26-1.57
			C886.61,848.62,877.05,845.92,877.05,845.92z"/>
		<path class="st5" d="M864.86,871.08h21.7c1.34,0,2.44-1.1,2.44-2.44l0,0c0-1.34-1.09-2.44-2.44-2.44h-21.7
			c-1.34,0-2.44,1.1-2.44,2.44l0,0C862.43,869.98,863.52,871.08,864.86,871.08z"/>
		<g>
			<path class="st5" d="M879.31,878.18c0,2.31,1.74,4.17,3.9,4.17c2.15,0,3.9-1.87,3.9-4.17s-1.75-4.17-3.9-4.17
				C881.06,874,879.31,875.87,879.31,878.18z M880.8,878.21c0-1.34,1.09-2.42,2.42-2.42c1.34,0,2.42,1.08,2.42,2.42
				c0,1.34-1.09,2.42-2.42,2.42C881.88,880.63,880.8,879.55,880.8,878.21z"/>
			<path class="st5" d="M883.25,876.98c0.69,0,1.26,0.56,1.26,1.26c0,0.69-0.56,1.26-1.26,1.26s-1.26-0.56-1.26-1.26
				S882.56,876.98,883.25,876.98z"/>
		</g>
		<g>
			<path class="st5" d="M863.67,878.18c0,2.31,1.74,4.17,3.9,4.17c2.15,0,3.9-1.87,3.9-4.17s-1.74-4.17-3.9-4.17
				C865.41,874,863.67,875.87,863.67,878.18z M865.16,878.21c0-1.34,1.08-2.42,2.42-2.42c1.34,0,2.42,1.08,2.42,2.42
				c0,1.34-1.09,2.42-2.42,2.42C866.24,880.63,865.16,879.55,865.16,878.21z"/>
			<path class="st5" d="M867.61,876.98c0.69,0,1.26,0.56,1.26,1.26c0,0.69-0.57,1.26-1.26,1.26s-1.26-0.56-1.26-1.26
				S866.91,876.98,867.61,876.98z"/>
		</g>
		<rect x="872.39" y="877.42" class="st5" width="6.01" height="1.62"/>
		<path class="st5" d="M892.95,875.79h-5.63c0,0-0.6-2.71-3.79-2.76s-4.22,2.76-4.22,2.76h-7.58c0,0-0.54-2.82-4.17-2.76
			c-3.63,0.05-3.9,2.76-3.9,2.76h-4.28v-2.76h3.46v-1.51h27.28v1.57h2.81v2.7H892.95z"/>
		<path class="st9" d="M895.25,824.49h-5.64c0,0-0.77,17.13-4.49,20.46l4.89,1.81C890,846.75,895.99,830.63,895.25,824.49z"/>
		<g>
			<g>
				<polygon class="st9" points="998.12,861.35 998.37,859.92 927.54,847.53 930.57,849.53 				"/>
			</g>
			<g>
				<path class="st9" d="M1092.99,889.39c0.02,0,0.05,0,0.07,0c3.82-0.15,6.75-10.61,6.85-12.22c0.01-0.18,0.07-0.4,0.14-0.64
					c0.66-2.43,0.34-4.73-10.32-8.21c-12.36-4.03-32.09,1.05-34.05,1.58l-12.38-1.2l-41.83-8.06l-0.27,1.43l41.89,8.07l12.71,1.24
					l0.13-0.03c0.21-0.06,21.03-5.64,33.35-1.63c10.22,3.33,9.73,5.13,9.37,6.44c-0.08,0.3-0.17,0.61-0.18,0.94
					c-0.11,1.8-3.09,10.76-5.45,10.84c-0.02,0-0.03,0-0.05,0c-2.85,0-33.29-8.92-37.16-12.79l-0.15-0.15l-9.32-2.04l-47.83-8.78
					l-0.26,1.43l47.8,8.77l8.89,1.94C1059.69,880.57,1089.39,889.38,1092.99,889.39z"/>
			</g>
		</g>
		<g>
			
				<rect x="933.78" y="806.9" transform="matrix(0.3491 -0.9371 0.9371 0.3491 -189.0229 1429.5321)" class="st4" width="1.46" height="87.86"/>
		</g>
		<g>
			
				<rect x="885.07" y="829.39" transform="matrix(0.3985 -0.9172 0.9172 0.3985 -230.4498 1313.0035)" class="st4" width="1.46" height="5.6"/>
		</g>
		<g>
			
				<rect x="883.25" y="835.13" transform="matrix(0.484 -0.8751 0.8751 0.484 -277.8151 1206.339)" class="st4" width="1.45" height="7.21"/>
		</g>
		<g>
			<polygon class="st4" points="968.15,868.41 971.72,868.61 893.2,841.05 892.71,842.42 			"/>
		</g>
		<g>
			<path class="st4" d="M1079.73,915.65c4.92,0,8.62-8.63,9.52-11.66l0.06-0.2c0.84-2.78,0.41-3.03-6.8-7.15
				c-1.39-0.8-3.05-1.74-5.03-2.89c-11.92-6.93-26.26-3.41-28.23-2.88l-9.8-2.92l-47.04-17.41l-0.51,1.37l47.08,17.42l10.25,3.05
				l0.21-0.06c0.15-0.04,15.29-4.31,27.31,2.68c1.98,1.15,3.64,2.1,5.04,2.9c6.63,3.79,6.63,3.79,6.13,5.46l-0.06,0.21
				c-0.85,2.84-4.36,10.62-8.13,10.62c-3.96,0-23.88-9.46-29.19-13.87c-4.86-4.02-6.32-6.7-6.33-6.73l-0.13-0.25l-0.27-0.09
				l-54.83-18.94l-0.48,1.38l54.58,18.85c0.49,0.8,2.25,3.35,6.54,6.9C1054.73,905.7,1075.13,915.65,1079.73,915.65z"/>
		</g>
		<g>
			<g>
				<path class="st5" d="M850.62,885.14v11.68h153.85v-11.68H850.62z M985.44,889.71c-0.02-2.66,2.7-4.35,5.08-3.16
					c1.12,0.56,1.86,1.75,1.87,3c0.02,2.66-2.7,4.35-5.08,3.16C986.19,892.15,985.45,890.95,985.44,889.71z M966.27,889.71
					c-0.02-2.66,2.7-4.35,5.08-3.16c1.12,0.56,1.86,1.75,1.87,3c0.02,2.66-2.7,4.35-5.08,3.16
					C967.03,892.15,966.28,890.95,966.27,889.71z M947.11,889.71c-0.02-2.66,2.7-4.35,5.08-3.16c1.12,0.56,1.86,1.75,1.87,3
					c0.02,2.66-2.7,4.35-5.08,3.16C947.86,892.15,947.12,890.96,947.11,889.71z M928.36,889.71c-0.02-2.66,2.7-4.35,5.08-3.16
					c1.12,0.56,1.86,1.75,1.87,3c0.02,2.66-2.7,4.35-5.08,3.16C929.11,892.15,928.37,890.96,928.36,889.71z M908.2,889.71
					c-0.02-2.66,2.7-4.35,5.08-3.16c1.12,0.56,1.86,1.75,1.87,3c0.02,2.66-2.7,4.35-5.08,3.16
					C908.95,892.15,908.21,890.96,908.2,889.71z M890.21,889.23c-0.02-2.66,2.7-4.35,5.07-3.16c1.12,0.56,1.86,1.75,1.87,3
					c0.02,2.66-2.7,4.35-5.08,3.16C890.96,891.67,890.22,890.48,890.21,889.23z M871.06,889.71c-0.02-2.66,2.7-4.35,5.08-3.16
					c1.12,0.56,1.86,1.75,1.87,3c0.02,2.66-2.7,4.35-5.08,3.16C871.82,892.15,871.07,890.96,871.06,889.71z"/>
				<g>
					<path class="st5" d="M1004.47,884.64l-153.85-0.08v-2.61h12.66c0,0,0.69,1.26,3.47,1.35c2.78,0.08,3.79-1.35,3.79-1.35h9.87
						c0,0-0.56,1.43,2.45,1.35c3-0.08,2.92-0.93,3-1.35h86.4c0,0,0.76,1.94,4.8,1.77s5.3-1.77,5.3-1.77h22.09v2.69H1004.47z"/>
				</g>
			</g>
		</g>
		<g>
			<path class="st6" d="M995.05,897.13c0.67,0,1.38-0.06,2.14-0.21c3.25-0.61,6.53-1.81,9.42-2.87c3.1-1.13,5.77-2.11,7.59-2.11
				c1.48,0,3.02,0.69,4.8,1.49c2.42,1.09,5.42,2.44,9.64,2.71c7.43,0.49,10.76-2.31,10.9-2.43l-0.95-1.1
				c-0.03,0.02-3.06,2.52-9.85,2.08c-3.95-0.26-6.7-1.49-9.13-2.59c-1.94-0.87-3.61-1.62-5.39-1.62c-2.07,0-4.86,1.02-8.09,2.2
				c-2.84,1.04-6.06,2.21-9.19,2.81c-3.71,0.7-5.94-0.7-8.31-2.18c-1.61-1.01-3.27-2.05-5.38-2.35c-3.01-0.42-5.34,0.6-8.05,1.8
				c-1.98,0.88-4.23,1.87-7.19,2.49c-4.36,0.92-7.32-1.02-9.92-2.73c-1.37-0.9-2.67-1.75-4-2.01c-3.17-0.63-9.33,1.63-14.29,3.44
				c-0.87,0.32-1.69,0.62-2.44,0.88c-4.68,1.66-11.05-2.17-15.27-4.7c-3.12-1.87-5.77-0.58-9.13,1.05
				c-2.25,1.09-4.81,2.33-8.21,3.07c-5.29,1.14-7.01,0.32-9.4-0.83c-1.41-0.68-3.02-1.44-5.59-1.96c-4.02-0.81-7.24,0.21-10.35,1.2
				c-2.43,0.77-4.94,1.57-7.93,1.57c-5.32,0-5.77-0.38-7.12-1.49c-0.4-0.33-0.86-0.71-1.51-1.16c-2.71-1.88-6.91-0.95-11.77,0.13
				c-1.05,0.23-2.13,0.47-3.22,0.69c-1.33,0.26-2.5,0.57-3.63,0.87c-3.89,1.04-6.7,1.78-11.37-0.8c-5.12-2.83-5.79-3.44-5.85-3.51
				l-0.51,0.49l-0.58-0.58l-0.2,0.62c0.06,0.4,0.11,0.75,6.44,4.24c5.18,2.86,8.39,2.01,12.45,0.93c1.11-0.29,2.26-0.6,3.54-0.86
				c1.11-0.22,2.2-0.46,3.25-0.69c4.53-1.01,8.44-1.88,10.63-0.36c0.6,0.42,1.03,0.78,1.41,1.09c1.68,1.39,2.47,1.83,8.05,1.83
				c3.22,0,5.84-0.83,8.37-1.63c3.07-0.97,5.97-1.9,9.63-1.16c2.39,0.48,3.91,1.21,5.24,1.85c2.56,1.22,4.57,2.18,10.34,0.94
				c3.58-0.77,6.33-2.11,8.54-3.18c3.19-1.55,5.3-2.58,7.75-1.11c4.45,2.67,11.18,6.71,16.5,4.83c0.76-0.27,1.58-0.57,2.46-0.89
				c4.53-1.66,10.73-3.95,13.51-3.38c1.05,0.21,2.17,0.95,3.48,1.8c2.7,1.77,6.06,3.98,11.02,2.94c3.1-0.65,5.43-1.67,7.48-2.58
				c2.6-1.15,4.66-2.06,7.25-1.69c1.8,0.26,3.26,1.17,4.81,2.14C989.8,895.77,991.97,897.13,995.05,897.13z"/>
		</g>
		<g>
			<path class="st6" d="M1089.58,896.36c1.57,0,2.35-0.25,2.39-0.27l-0.46-1.38c-0.01,0-1.48,0.45-4.6-0.03
				c-1.72-0.26-2.53-1.23-3.49-2.35c-0.71-0.83-1.51-1.78-2.74-2.45c-3-1.61-6.93,0.36-7.1,0.44l0.66,1.3
				c0.03-0.02,3.44-1.7,5.75-0.46c0.99,0.53,1.64,1.29,2.32,2.1c1.04,1.23,2.12,2.5,4.37,2.85
				C1087.85,896.3,1088.81,896.36,1089.58,896.36z"/>
		</g>
		<g>
			<g>
				<path class="st13" d="M1038.06,894.13c0,0,26.88-50.41,19.43-58.31c-5.78-6.13-15.63,11.07-19.76,19.08"/>
				<g>
					<polygon class="st12" points="1035.46,852.79 1035.83,858.76 1040.82,855.46 					"/>
				</g>
			</g>
		</g>
		<g>
			<g>
				<path class="st14" d="M1108.76,889.19c0.59,6.74,1.2,28.08-12.32,44.12"/>
				<g>
					<polygon class="st12" points="1107.28,889.78 1108.52,887.06 1110.26,889.49 					"/>
				</g>
			</g>
		</g>
	</g>
	<g>
		<path class="st8" d="M1033.17,197.49c0,0,33.07-4.85,36.49-9.64s-2.91-3.73-3.6-2.48"/>
		<path class="st8" d="M1032.99,201.23c0,0,66.42-12.97,67.63-12.97c3.06,0,7.18,4.31-1.8,6.49c-9.65,2.34-65.94,10.47-65.94,10.47"
			/>
		<path class="st8" d="M865.56,271c0,0,10.26-8.94,13.63-8.5s4.1,5.86,3.37,8.5s-11.43,16.26-14.07,16.12
			C865.85,286.97,864.22,272.13,865.56,271z"/>
		<path class="st8" d="M872.59,251.66c0,0-9.23-1.03-15.24,2.2s-13.48,4.69-13.33,9.67c0.15,4.98,2.35,12.31,5.57,12.6
			c3.22,0.29,24.62-14.51,25.35-17.29C875.67,256.06,874.65,251.79,872.59,251.66z"/>
		<path class="st15" d="M866.34,247.21c0,0-25.57,14.55-31.19,16.61c-5.62,2.06-13.05-8.74-12.33-12.32
			c0.72-3.57,23.75-13.36,32.82-11.37c9.07,2,10.7,2,10.7,2l3.81-1.27c0,0,169.71-53.85,172.79-54.21c3.08-0.36,3.26,2.54,2.9,3.08
			C1045.48,190.28,866.34,247.21,866.34,247.21z"/>
		<g>
			<path class="st5" d="M922.74,233.32v11.93h157.24v-11.93H922.74z M1060.53,237.98c-0.02-2.72,2.76-4.45,5.19-3.23
				c1.14,0.57,1.9,1.79,1.91,3.07c0.02,2.71-2.76,4.44-5.19,3.23C1061.3,240.48,1060.54,239.26,1060.53,237.98z M1040.95,237.98
				c-0.02-2.72,2.76-4.45,5.19-3.23c1.14,0.57,1.9,1.79,1.91,3.07c0.02,2.71-2.76,4.44-5.19,3.23
				C1041.72,240.48,1040.95,239.26,1040.95,237.98z M1021.36,237.98c-0.02-2.72,2.76-4.45,5.19-3.23c1.14,0.57,1.9,1.79,1.91,3.07
				c0.02,2.71-2.76,4.44-5.19,3.23C1022.13,240.48,1021.37,239.26,1021.36,237.98z M1002.19,237.98c-0.02-2.72,2.76-4.45,5.19-3.23
				c1.14,0.57,1.9,1.79,1.91,3.07c0.02,2.71-2.76,4.44-5.18,3.23C1002.96,240.48,1002.2,239.26,1002.19,237.98z M981.59,237.98
				c-0.02-2.72,2.76-4.45,5.19-3.23c1.14,0.57,1.9,1.79,1.91,3.07c0.02,2.71-2.76,4.44-5.18,3.23
				C982.36,240.48,981.6,239.26,981.59,237.98z M963.21,237.5c-0.02-2.71,2.76-4.44,5.19-3.23c1.14,0.57,1.9,1.79,1.91,3.07
				c0.02,2.71-2.76,4.45-5.19,3.23C963.98,239.99,963.22,238.77,963.21,237.5z M943.64,237.98c-0.02-2.72,2.76-4.45,5.19-3.23
				c1.14,0.57,1.9,1.79,1.91,3.07c0.02,2.71-2.76,4.44-5.19,3.23C944.4,240.48,943.65,239.26,943.64,237.98z"/>
			<g>
				<path class="st5" d="M1079.98,232.81l-157.24-0.09v-2.67h12.94c0,0,0.7,1.29,3.55,1.38c2.84,0.09,3.87-1.38,3.87-1.38h10.09
					c0,0-0.57,1.46,2.5,1.38c3.07-0.09,2.99-0.95,3.07-1.38h88.31c0,0,0.78,1.98,4.9,1.81c4.13-0.17,5.42-1.81,5.42-1.81h22.58
					L1079.98,232.81L1079.98,232.81z"/>
			</g>
		</g>
		<g>
			<path class="st6" d="M1070.35,245.57c0.68,0,1.41-0.06,2.19-0.21c3.31-0.63,6.67-1.85,9.62-2.93c3.17-1.16,5.9-2.16,7.76-2.16
				c1.51,0,3.09,0.71,4.91,1.52c2.47,1.11,5.55,2.49,9.85,2.77c7.59,0.5,11-2.36,11.14-2.49l-0.97-1.12
				c-0.03,0.02-3.13,2.57-10.07,2.12c-4.03-0.26-6.85-1.53-9.33-2.64c-1.98-0.89-3.69-1.66-5.52-1.66c-2.11,0-4.96,1.04-8.27,2.25
				c-2.9,1.06-6.19,2.26-9.39,2.87c-3.79,0.72-6.08-0.72-8.49-2.23c-1.64-1.03-3.34-2.09-5.49-2.4c-3.07-0.43-5.46,0.62-8.22,1.84
				c-2.03,0.89-4.33,1.91-7.35,2.54c-4.46,0.94-7.48-1.05-10.14-2.79c-1.4-0.92-2.73-1.79-4.08-2.06
				c-3.24-0.64-9.54,1.66-14.61,3.52c-0.89,0.32-1.73,0.63-2.5,0.9c-4.79,1.69-11.29-2.22-15.6-4.81c-3.19-1.92-5.9-0.6-9.33,1.07
				c-2.3,1.12-4.91,2.38-8.39,3.14c-5.4,1.16-7.17,0.32-9.61-0.84c-1.44-0.69-3.09-1.48-5.71-2c-4.11-0.83-7.4,0.22-10.58,1.23
				c-2.48,0.79-5.05,1.6-8.11,1.6c-5.43,0-5.9-0.38-7.27-1.52c-0.41-0.34-0.88-0.73-1.54-1.19c-2.77-1.92-7.06-0.97-12.03,0.13
				c-1.07,0.24-2.17,0.48-3.29,0.7c-1.36,0.27-2.56,0.59-3.71,0.89c-3.98,1.06-6.84,1.82-11.62-0.82c-5.24-2.89-5.92-3.52-5.98-3.58
				l-0.52,0.5l-0.6-0.59l-0.21,0.64c0.06,0.41,0.11,0.76,6.58,4.34c5.3,2.93,8.57,2.06,12.73,0.95c1.13-0.3,2.3-0.61,3.62-0.87
				c1.13-0.22,2.24-0.47,3.33-0.71c4.63-1.03,8.63-1.92,10.86-0.36c0.61,0.43,1.06,0.8,1.44,1.11c1.71,1.42,2.53,1.87,8.22,1.87
				c3.29,0,5.97-0.85,8.56-1.67c3.14-0.99,6.1-1.94,9.84-1.19c2.45,0.49,3.99,1.23,5.36,1.89c2.61,1.25,4.67,2.23,10.57,0.95
				c3.65-0.79,6.47-2.15,8.72-3.25c3.26-1.59,5.42-2.63,7.92-1.13c4.55,2.73,11.43,6.85,16.86,4.94c0.78-0.27,1.62-0.58,2.51-0.91
				c4.63-1.7,10.97-4.03,13.8-3.46c1.07,0.22,2.22,0.97,3.56,1.85c2.76,1.81,6.2,4.07,11.26,3c3.17-0.66,5.55-1.71,7.64-2.64
				c2.66-1.17,4.77-2.1,7.42-1.72c1.84,0.26,3.33,1.2,4.91,2.19C1064.99,244.18,1067.2,245.57,1070.35,245.57z"/>
		</g>
		<path class="st1" d="M939.55,223.72h3.26c0,0,1.09,5.87,5.22,5.87c4.13,0,5-4.57,5-4.57l7.61,0.44c-0.22,1.3,2.18,3.91,5.87,2.61
			c3.7-1.31,3.26-3.48,3.26-3.48s3.92,0.22,5.44-2.83c1.52-3.04-3.92-3.48-3.92-3.48l-0.65-6.31h-8.7c0,0,22.83-27.18,28.05-30.66
			c3.11-2.08,0,5,3.92,28.26c1.57,9.33,2.39,18.7,2.39,18.7c-0.87,2.61-0.65,3.04,5,1.09c5.65-1.96,22.61-21.53,22.61-24.35
			c0-2.83-20.44,6.3-20.44,6.3s0.65-32.83,1.74-33.92c1.09-1.09,28.48,4.56,31.09,4.56s5.65,2.83,8.48,2.17
			c2.83-0.65,5,5.44,6.52,5.44s1.96-4.78,0-6.96c-1.96-2.17-6.96-3.26-7.83-3.26s-17.39-9.13-18.7-10.44
			c-1.31-1.31-13.92-1.74-15.66-2.17s-11.74-3.04-12.83-3.91c-1.09-0.87-13.91-6.74-14.57-6.96c-0.65-0.22-3.92-3.26-3.92-3.26
			l2.83-3.27c0,0,5.44,0.87,8.48,0s1.74-5.87,1.74-5.87h2.39l-1.31-5.65c0,0,0,0,0.22-3.04s-2.61-13.92-15.22-13.05
			s-8.91,18.26-8.91,19.57s-4.57,6.31-4.57,6.31c-5.87,0-10.44,8.48-10.44,8.48c-8.91,12.39-9.35,19.57-9.35,38.92
			c0,13.16,2.01,16.06,3.3,16.57l-3.95,0.17l-2.17,7.39C936.29,219.16,939.55,223.72,939.55,223.72z M978.3,166.63l4.4,1.26
			l-4.4,4.25V166.63z"/>
		<path class="st1" d="M958.6,150.93c0,0,5-3.64,6.56-3.44c1.56,0.21,1.46,1.67,0.94,2.08c-0.52,0.42-2.57-0.21-3.58,4.06
			s0.35,5.83,2.22,7.19c1.87,1.35,5.62,3.33,6.14,3.44c0.52,0.1,6.46,1.88,6.46,1.88l1.25,1.77l-0.94,3.44
			c0,0-13.85,11.98-14.68,11.98c-0.84,0-2.92-2.92-6.35-3.33c-3.44-0.42-7.39,3.44-8.33,5s-3.27,6.87-3.61,7.19
			c-0.34,0.31,1.33-18.23,2.05-22.34C947.46,165.72,956.52,151.56,958.6,150.93z"/>
		<path class="st1" d="M978.6,156.76c0,0-4.69-7.6-10.36-6.67s-4.95,5.21-4.43,7.19s6.46,6.77,14.27,7.5c0,0,9.79,4.48,15.93,5.93
			c0,0,8.85,5.83,22.18,8.12s21.45,2.08,21.45,2.08s1.56,2.71,3.75,2.71s3.75-1.56,6.25-0.63c2.5,0.94,2.5,5.1,2.81,6.25
			c0.31,1.14,3.86-1.56,1.88-5.42c-1.98-3.85-12.39-5.1-12.39-5.1s-17.39-10.52-25.2-10.62c-7.81-0.1-10.31-3.64-14.89-4.06
			C995.26,163.64,978.6,156.76,978.6,156.76z"/>
		<path class="st1" d="M946.01,195.67c0,0,2.26-20.82,16.3-10.71c0,0,16.89-14.22,22.84-15.2l19.51,8.18c0,0-0.95,12.02-1.79,17.72
			c-0.83,5.71-1.55,17.25-0.12,18.08s17.72-8.45,19.39-7.49c1.67,0.95-18.32,22.48-21.77,22.48s-3.21,2.14-3.33-1.43
			c-0.12-3.57-0.48-16.66-0.48-17.96s-2.74-5.12-4.16-11.66c-1.43-6.54,0.48-12.25,0.36-13.92s-3.93-2.5-3.93-2.5
			s-24.98,28.67-27.95,29.62s-9.04,1.31-11.06,1.31s-3.81-3.33-3.81-3.33S945.35,203.19,946.01,195.67z"/>
		<g>
			<g>
				<g>
					<path class="st16" d="M943.71,217.49h26.18c0.45,0,0.81-0.36,0.81-0.81v-3.48c0-0.45-0.36-0.81-0.81-0.81h-26.18
						c-0.45,0-0.81,0.36-0.81,0.81v3.48C942.9,217.12,943.26,217.49,943.71,217.49z"/>
					<g>
						<path class="st16" d="M960.56,224.91c0,2.41,1.83,4.37,4.08,4.37s4.07-1.95,4.07-4.37c0-2.41-1.83-4.36-4.07-4.36
							C962.39,220.54,960.56,222.5,960.56,224.91z M962.12,224.94c0-1.4,1.13-2.53,2.53-2.53s2.54,1.14,2.54,2.53
							c0,1.4-1.13,2.53-2.54,2.53C963.25,227.48,962.12,226.34,962.12,224.94z"/>
						<path class="st16" d="M964.68,223.66c0.72,0,1.31,0.59,1.31,1.32c0,0.73-0.59,1.32-1.31,1.32c-0.73,0-1.32-0.59-1.32-1.32
							S963.95,223.66,964.68,223.66z"/>
					</g>
					<g>
						<path class="st16" d="M944.2,224.91c0,2.41,1.82,4.37,4.07,4.37s4.07-1.95,4.07-4.37c0-2.41-1.82-4.36-4.07-4.36
							C946.02,220.54,944.2,222.5,944.2,224.91z M945.76,224.94c0-1.4,1.13-2.53,2.53-2.53s2.53,1.14,2.53,2.53
							c0,1.4-1.13,2.53-2.53,2.53C946.89,227.48,945.76,226.34,945.76,224.94z"/>
						<path class="st16" d="M948.32,223.66c0.73,0,1.32,0.59,1.32,1.32c0,0.73-0.59,1.32-1.32,1.32c-0.72,0-1.31-0.59-1.31-1.32
							C947,224.25,947.59,223.66,948.32,223.66z"/>
					</g>
					<rect x="953.31" y="224.11" class="st16" width="6.29" height="1.7"/>
					<path class="st16" d="M974.83,222.41h-5.89c0,0-0.62-2.83-3.96-2.89s-4.41,2.89-4.41,2.89h-7.92c0,0-0.57-2.94-4.36-2.89
						c-3.79,0.06-4.07,2.89-4.07,2.89h-4.47v-2.89h3.62v-1.58h28.53v1.64h2.94v2.83H974.83z"/>
				</g>
			</g>
		</g>
		<path class="st17" d="M968.78,224.61h3.26c0,0,1.09,5.87,5.22,5.87c4.13,0,5-4.57,5-4.57l7.61,0.43
			c-0.22,1.31,2.17,3.91,5.87,2.61c3.7-1.31,3.26-3.48,3.26-3.48s3.91,0.22,5.44-2.83c1.52-3.04-3.92-3.48-3.92-3.48l-0.65-6.3h-8.7
			c0,0,22.83-27.18,28.05-30.66c3.11-2.07,0,5,3.92,28.27c1.57,9.33,2.39,18.7,2.39,18.7c-0.87,2.61-0.65,3.04,5,1.09
			c5.65-1.96,22.61-21.53,22.61-24.35c0-2.83-20.44,6.31-20.44,6.31s0.65-32.83,1.74-33.92s28.48,4.56,31.09,4.56
			s5.65,2.83,8.48,2.17c2.83-0.65,5,5.44,6.52,5.44s1.95-4.78,0-6.96c-1.96-2.17-6.96-3.26-7.83-3.26s-17.39-9.13-18.7-10.44
			c-1.31-1.31-13.92-1.74-15.66-2.17s-11.74-3.04-12.83-3.91c-1.09-0.87-13.91-6.74-14.57-6.96c-0.65-0.22-3.92-3.26-3.92-3.26
			l2.83-3.27c0,0,5.44,0.87,8.48,0s1.74-5.87,1.74-5.87h2.39l-1.31-5.65c0,0,0,0,0.22-3.04s-2.61-13.92-15.22-13.05
			s-8.91,18.26-8.91,19.57c0,1.31-4.57,6.3-4.57,6.3c-5.87,0-10.44,8.48-10.44,8.48c-8.92,12.39-9.35,19.57-9.35,38.92
			c0,13.16,2.01,16.06,3.3,16.57l-3.95,0.17l-2.17,7.39C965.52,220.04,968.78,224.61,968.78,224.61z M1007.53,167.52l4.4,1.26
			l-4.4,4.25V167.52z"/>
		<path class="st17" d="M987.84,151.82c0,0,5-3.64,6.56-3.44c1.56,0.21,1.46,1.67,0.94,2.08c-0.52,0.42-2.57-0.21-3.58,4.06
			s0.35,5.83,2.22,7.18c1.87,1.35,5.62,3.33,6.14,3.44c0.52,0.1,6.46,1.88,6.46,1.88l1.25,1.77l-0.94,3.44
			c0,0-13.85,11.98-14.68,11.98s-2.91-2.92-6.35-3.33c-3.44-0.42-7.39,3.44-8.33,5s-3.27,6.87-3.61,7.19
			c-0.34,0.31,1.32-18.23,2.05-22.34C976.69,166.61,985.75,152.44,987.84,151.82z"/>
		<path class="st17" d="M1007.83,157.65c0,0-4.69-7.6-10.36-6.66s-4.95,5.21-4.43,7.19s6.46,6.77,14.27,7.5
			c0,0,9.79,4.48,15.93,5.94c0,0,8.85,5.83,22.18,8.12s21.45,2.08,21.45,2.08s1.56,2.71,3.75,2.71s3.75-1.56,6.25-0.62
			s2.5,5.1,2.81,6.25s3.85-1.56,1.88-5.41c-1.98-3.85-12.39-5.1-12.39-5.1s-17.39-10.52-25.2-10.62c-7.81-0.1-10.31-3.64-14.89-4.06
			C1024.49,164.52,1007.83,157.65,1007.83,157.65z"/>
		<path class="st17" d="M975.25,196.56c0,0,2.26-20.82,16.3-10.71c0,0,16.89-14.22,22.84-15.2l19.51,8.18c0,0-0.95,12.02-1.79,17.72
			c-0.83,5.71-1.55,17.25-0.12,18.08s17.72-8.45,19.39-7.49c1.67,0.95-18.32,22.48-21.77,22.48c-3.45,0-3.21,2.14-3.33-1.43
			c-0.12-3.57-0.48-16.66-0.48-17.96s-2.74-5.12-4.17-11.66c-1.43-6.54,0.48-12.25,0.36-13.92c-0.12-1.66-3.93-2.5-3.93-2.5
			s-24.98,28.67-27.95,29.62c-2.97,0.95-9.04,1.31-11.06,1.31s-3.81-3.33-3.81-3.33S974.59,204.07,975.25,196.56z"/>
		<g>
			<g>
				<g>
					<path class="st16" d="M972.94,218.37h26.18c0.45,0,0.81-0.36,0.81-0.81v-3.48c0-0.45-0.36-0.81-0.81-0.81h-26.18
						c-0.45,0-0.81,0.36-0.81,0.81v3.47C972.13,218.01,972.5,218.37,972.94,218.37z"/>
					<g>
						<path class="st16" d="M989.8,225.79c0,2.41,1.83,4.37,4.07,4.37c2.25,0,4.08-1.95,4.08-4.37s-1.83-4.36-4.08-4.36
							S989.8,223.38,989.8,225.79z M991.35,225.83c0-1.4,1.13-2.53,2.53-2.53s2.53,1.14,2.53,2.53c0,1.4-1.13,2.53-2.53,2.53
							S991.35,227.23,991.35,225.83z"/>
						<path class="st16" d="M993.92,224.54c0.72,0,1.31,0.59,1.31,1.32c0,0.73-0.59,1.32-1.31,1.32c-0.73,0-1.32-0.59-1.32-1.32
							C992.6,225.13,993.19,224.54,993.92,224.54z"/>
					</g>
					<g>
						<path class="st16" d="M973.44,225.79c0,2.41,1.82,4.37,4.07,4.37s4.07-1.95,4.07-4.37s-1.82-4.36-4.07-4.36
							S973.44,223.38,973.44,225.79z M974.99,225.83c0-1.4,1.13-2.53,2.54-2.53c1.4,0,2.53,1.14,2.53,2.53
							c0,1.4-1.13,2.53-2.53,2.53C976.13,228.36,974.99,227.23,974.99,225.83z"/>
						<path class="st16" d="M977.55,224.54c0.73,0,1.32,0.59,1.32,1.32c0,0.73-0.59,1.32-1.32,1.32c-0.72,0-1.32-0.59-1.32-1.32
							C976.24,225.13,976.83,224.54,977.55,224.54z"/>
					</g>
					<rect x="982.54" y="224.99" class="st16" width="6.29" height="1.7"/>
					<path class="st16" d="M1004.06,223.3h-5.89c0,0-0.62-2.83-3.96-2.89s-4.41,2.89-4.41,2.89h-7.93c0,0-0.57-2.95-4.36-2.89
						s-4.07,2.89-4.07,2.89h-4.47v-2.89h3.62v-1.58h28.53v1.64h2.94L1004.06,223.3L1004.06,223.3z"/>
				</g>
			</g>
		</g>
		<path class="st4" d="M993.73,227.49h3.26c0,0,1.09,5.87,5.22,5.87s5-4.57,5-4.57l7.61,0.43c-0.22,1.31,2.18,3.91,5.87,2.61
			c3.7-1.31,3.26-3.48,3.26-3.48s3.92,0.22,5.44-2.83c1.52-3.04-3.92-3.48-3.92-3.48l-0.65-6.3h-8.7c0,0,22.83-27.18,28.05-30.66
			c3.11-2.07,0,5,3.92,28.27c1.57,9.33,2.39,18.7,2.39,18.7c-0.87,2.61-0.65,3.04,5,1.09c5.65-1.96,22.61-21.53,22.61-24.35
			c0-2.83-20.44,6.31-20.44,6.31s0.65-32.83,1.74-33.92s28.48,4.57,31.09,4.57s5.65,2.83,8.48,2.17c2.83-0.65,5,5.44,6.52,5.44
			s1.96-4.78,0-6.96c-1.96-2.17-6.96-3.26-7.83-3.26s-17.39-9.13-18.7-10.44c-1.31-1.31-13.92-1.74-15.66-2.17
			c-1.74-0.44-11.74-3.04-12.83-3.91c-1.09-0.87-13.91-6.74-14.57-6.96c-0.65-0.22-3.92-3.26-3.92-3.26l2.83-3.27
			c0,0,5.44,0.87,8.48,0s1.74-5.87,1.74-5.87h2.39l-1.3-5.65c0,0,0,0,0.22-3.04s-2.61-13.92-15.22-13.05s-8.91,18.26-8.91,19.57
			c0,1.3-4.57,6.3-4.57,6.3c-5.87,0-10.44,8.48-10.44,8.48c-8.91,12.39-9.35,19.57-9.35,38.92c0,13.16,2.01,16.06,3.3,16.57
			l-3.95,0.17l-2.17,7.39C990.46,222.92,993.73,227.49,993.73,227.49z M1032.47,170.4l4.41,1.26l-4.41,4.24V170.4z"/>
		<path class="st4" d="M1012.78,154.7c0,0,5-3.64,6.56-3.44c1.56,0.21,1.46,1.67,0.94,2.08c-0.52,0.42-2.57-0.21-3.58,4.06
			s0.35,5.83,2.22,7.18c1.87,1.35,5.62,3.33,6.14,3.44c0.52,0.1,6.46,1.88,6.46,1.88l1.25,1.77l-0.94,3.44
			c0,0-13.85,11.98-14.68,11.98s-2.91-2.92-6.35-3.33c-3.44-0.42-7.39,3.44-8.33,5s-3.27,6.87-3.61,7.19
			c-0.34,0.31,1.33-18.23,2.05-22.34C1001.64,169.49,1010.7,155.32,1012.78,154.7z"/>
		<path class="st4" d="M1032.78,160.53c0,0-4.69-7.6-10.36-6.66c-5.67,0.94-4.95,5.21-4.43,7.19s6.46,6.77,14.27,7.5
			c0,0,9.79,4.48,15.93,5.94c0,0,8.85,5.83,22.18,8.12c13.33,2.29,21.45,2.08,21.45,2.08s1.56,2.71,3.75,2.71s3.75-1.56,6.25-0.62
			s2.5,5.1,2.81,6.25s3.86-1.56,1.88-5.41s-12.39-5.1-12.39-5.1s-17.39-10.52-25.2-10.62c-7.81-0.11-10.31-3.64-14.89-4.06
			C1049.43,167.4,1032.78,160.53,1032.78,160.53z"/>
		<path class="st4" d="M1000.19,199.44c0,0,2.26-20.82,16.3-10.71c0,0,16.89-14.22,22.84-15.2l19.51,8.18c0,0-0.95,12.01-1.79,17.72
			c-0.83,5.71-1.55,17.25-0.12,18.08s17.72-8.45,19.39-7.5s-18.32,22.48-21.77,22.48c-3.45,0-3.21,2.14-3.33-1.43
			c-0.12-3.57-0.48-16.65-0.48-17.96s-2.74-5.12-4.17-11.66c-1.43-6.54,0.48-12.25,0.36-13.92c-0.12-1.66-3.93-2.5-3.93-2.5
			s-24.98,28.67-27.96,29.62c-2.97,0.95-9.04,1.31-11.06,1.31s-3.81-3.33-3.81-3.33S999.53,206.96,1000.19,199.44z"/>
		<g>
			<g>
				<g>
					<path class="st5" d="M997.89,221.26h26.18c0.45,0,0.81-0.36,0.81-0.81v-3.48c0-0.45-0.36-0.81-0.81-0.81h-26.18
						c-0.45,0-0.81,0.36-0.81,0.81v3.48C997.08,220.89,997.44,221.26,997.89,221.26z"/>
					<g>
						<path class="st5" d="M1014.74,228.68c0,2.41,1.83,4.37,4.08,4.37s4.07-1.95,4.07-4.37c0-2.41-1.83-4.36-4.07-4.36
							C1016.56,224.31,1014.74,226.27,1014.74,228.68z M1016.3,228.71c0-1.4,1.13-2.53,2.53-2.53s2.53,1.13,2.53,2.53
							s-1.13,2.53-2.53,2.53C1017.43,231.25,1016.3,230.11,1016.3,228.71z"/>
						<path class="st5" d="M1018.86,227.43c0.72,0,1.31,0.59,1.31,1.32c0,0.73-0.59,1.32-1.31,1.32c-0.73,0-1.32-0.59-1.32-1.32
							C1017.54,228.01,1018.13,227.43,1018.86,227.43z"/>
					</g>
					<g>
						<path class="st5" d="M998.38,228.68c0,2.41,1.82,4.37,4.07,4.37s4.07-1.95,4.07-4.37c0-2.41-1.82-4.36-4.07-4.36
							S998.38,226.27,998.38,228.68z M999.93,228.71c0-1.4,1.13-2.53,2.54-2.53c1.4,0,2.53,1.13,2.53,2.53s-1.13,2.53-2.53,2.53
							C1001.07,231.25,999.93,230.11,999.93,228.71z"/>
						<path class="st5" d="M1002.5,227.43c0.73,0,1.32,0.59,1.32,1.32c0,0.73-0.59,1.32-1.32,1.32s-1.31-0.59-1.31-1.32
							C1001.18,228.01,1001.77,227.43,1002.5,227.43z"/>
					</g>
					<rect x="1007.49" y="227.88" class="st5" width="6.29" height="1.7"/>
					<path class="st5" d="M1029,226.18h-5.89c0,0-0.62-2.83-3.96-2.89s-4.41,2.89-4.41,2.89h-7.93c0,0-0.57-2.95-4.36-2.89
						s-4.07,2.89-4.07,2.89h-4.47v-2.89h3.62v-1.58h28.53v1.64h2.94V226.18z"/>
				</g>
			</g>
		</g>
		<g>
			<g>
				<line class="st13" x1="960.54" y1="159.46" x2="1003.78" y2="159.46"/>
				<g>
					<polygon class="st12" points="1002.91,162.45 1008.09,159.46 1002.91,156.46 					"/>
				</g>
			</g>
		</g>
		<g>
			<g>
				<path class="st14" d="M1110.07,162.87c1.09,4.11,3.22,13.84,2.24,24.54"/>
				<g>
					<polygon class="st12" points="1108.74,163.7 1109.47,160.8 1111.62,162.89 					"/>
				</g>
			</g>
		</g>
		<g>
			<g>
				<path class="st18" d="M826.44,231.48c0,0-28.44,7.6-14.33,34.03c10.6,19.87,27.68,27.4,35.5,29.91"/>
				<g>
					<polygon class="st12" points="845.97,298.01 851.76,296.53 847.58,292.25 					"/>
				</g>
			</g>
		</g>
		<path class="st8" d="M844.01,239.29c0,0-7.67-9.88,27.86-10.92c0,0,0.25-13.66,39.3-9.34"/>
		<path class="st8" d="M907.31,228.36c0,0-36.31,7.03-30.07,3.11c6.24-3.91,65.24-17.86,65.24-17.86"/>
	</g>
	<g>
		<path class="st15" d="M1007.51,496.44c0,0,6.28-7.27,7.94-5.79c2.96,2.66,4.46,3.97-2.32,9.26c-5.32,4.15-52.75,46.63-52.75,46.63
			l-23.81,21.66c0,0-1.49,7.11-7.44,12.73s-10.25,8.43-10.25,8.43v-16.7c0,0,2.48-7.44,14.22-7.94L1007.51,496.44z"/>
		<path class="st15" d="M918.15,572.67l0.04-0.23c0.11-0.32,2.74-7.81,14.61-8.42l74.18-68.08c0.94-1.09,5.36-6.05,7.76-6.2
			c0.59-0.04,0.97,0.19,1.22,0.42c1.54,1.39,2.75,2.48,2.7,4.09c-0.06,1.66-1.53,3.47-5.09,6.25c-5.24,4.09-52.24,46.17-52.7,46.59
			l-23.64,21.51c-0.32,1.32-2.09,7.67-7.6,12.87c-5.93,5.6-10.18,8.4-10.35,8.51l-1.13,0.74L918.15,572.67L918.15,572.67z"/>
	</g>
</g>
<g>
	<g>
		<g>
			<text transform="matrix(1 0 0 1 866.8997 91.9033)" class="st19 st20 st21">Movimientos</text>
		</g>
	</g>
</g>
<g>
	<rect x="640" y="347" class="st22" width="637" height="58"/>
	<text transform="matrix(1 0 0 1 656.4185 364.2446)" class="st19 st23 st24">Se inclina hacia adelante, rodillas dobladas, brazos extendidos y el </text>
	<text transform="matrix(1 0 0 1 869.3985 395.0346)" class="st19 st23 st24">remo entra al agua. </text>
</g>
<g>
	<rect x="805.35" y="315.78" class="st22" width="313.31" height="22.39"/>
	<text transform="matrix(1 0 0 1 806.2231 333.021)" class="st19 st25 st24">Agarre - Posición inicial - Empuje</text>
</g>
<g>
	<rect x="641.02" y="670" class="st22" width="635.98" height="84"/>
	<text transform="matrix(1 0 0 1 702.0225 687.2456)" class="st19 st23 st24">Las piernas se extienden y hace palanca hacia adelante. </text>
	<text transform="matrix(1 0 0 1 660.9926 718.0356)" class="st19 st23 st24">El remo sale del agua y se gira hasta que la hoja quede paralela al </text>
	<text transform="matrix(1 0 0 1 933.5225 748.8356)" class="st19 st23 st24">agua.</text>
</g>
<g>
	<rect x="807.73" y="635.9" class="st22" width="282.53" height="22.9"/>
	<text transform="matrix(1 0 0 1 832.7378 653.1431)" class="st19 st25 st24">Extracción - Finalización </text>
</g>
<g>
	<rect x="641.64" y="964" class="st22" width="634.36" height="50.25"/>
	<text transform="matrix(1 0 0 1 667.1367 981.2446)" class="st19 st23 st24">El remo se desliza hacia adelante preparándose para la próxima </text>
	<text transform="matrix(1 0 0 1 925.0367 1012.0346)" class="st19 st23 st24">palada.</text>
</g>
<g>
	<rect x="643.46" y="931.91" class="st22" width="633.54" height="23.24"/>
	<text transform="matrix(1 0 0 1 835.8037 949.1558)" class="st19 st25 st24">Recuperación - Repetición</text>
</g>
</svg>
